<?xml version="1.0" standalone="no"?>
<!DOCTYPE svg PUBLIC "-//W3C//DTD SVG 1.1//EN" "http://www.w3.org/Graphics/SVG/1.1/DTD/svg11.dtd" >
<svg xmlns="http://www.w3.org/2000/svg" xmlns:xlink="http://www.w3.org/1999/xlink" version="1.1">
<metadata>
Created by FontForge 20170731 at Sun Apr 17 20:08:36 2022
 By Aleksey,,,
</metadata>
<defs>
<font id="themify" horiz-adv-x="2048" >
  <font-face 
    font-family="themify"
    font-weight="400"
    font-stretch="normal"
    units-per-em="2048"
    panose-1="0 0 0 0 0 0 0 0 0 0"
    ascent="1920"
    descent="-128"
    bbox="-36 -144 2084 1944"
    underline-thickness="200"
    underline-position="-600"
    unicode-range="U+0001-FFFD"
  />
<missing-glyph horiz-adv-x="0" 
 />
    <glyph glyph-name=".notdef" unicode="&#xfffd;" horiz-adv-x="0" 
 />
    <glyph glyph-name=".null" horiz-adv-x="0" 
 />
    <glyph glyph-name="nonmarkingreturn" horiz-adv-x="682" 
 />
    <glyph glyph-name="u0" horiz-adv-x="0" 
 />
    <glyph glyph-name="u0" horiz-adv-x="0" 
 />
    <glyph glyph-name="u1" horiz-adv-x="0" 
 />
    <glyph glyph-name="u20" unicode=" " horiz-adv-x="1024" 
 />
    <glyph glyph-name="uE600" unicode="&#xe600;" 
d="M2048 1316v124h-396l276 272l-88 88l-272 -276v396h-124v-396l-280 280l-84 -84l280 -280h-396v-124h396l-1284 -1284l88 -84l1280 1284v-396h124v396l280 -280l84 84l-280 280h396z" />
    <glyph glyph-name="uE601" unicode="&#xe601;" 
d="M432 1204h216l680 692v-1980l-684 684h-212q-76 0 -132 56t-56 132v260q0 72 50.5 114t137.5 42zM1208 1600l-508 -516h-268q-31 0 -47.5 -7.5t-18.5 -13.5t-2 -15v-260q0 -27 20.5 -47.5t47.5 -20.5h260l516 -512v1392zM1448 596q99 0 169.5 71t70.5 173
q0 99 -70.5 169.5t-169.5 70.5v-120q48 0 84 -36t36 -84q0 -51 -36 -87.5t-84 -36.5v-120zM1932 836q0 201 -141.5 342.5t-342.5 141.5v-120q150 0 257 -107t107 -257q0 -147 -107 -253.5t-257 -106.5v-120q132 0 243.5 64.5t176 175t64.5 240.5z" />
    <glyph glyph-name="uE602" unicode="&#xe602;" 
d="M2048 -68v-60h-2048v60q4 162 107 305t283 241t406 134v152q-87 82 -140 240q-57 31 -92 108q-30 66 -22.5 123.5t46.5 84.5q-4 24 -4 76v44q1 42 0 84.5t10 84t30.5 74.5t60 56t99.5 29q8 8 12 16q30 60 80.5 95.5t155.5 40.5h32q171 0 284 -61t152 -175
q16 -43 -12 -116q-32 -81 -24 -164q2 -12 2 -27t-1 -33.5t-1 -27.5q31 -27 37.5 -80t-13.5 -116q-30 -91 -96 -124q-54 -146 -128 -220v-168q222 -36 399.5 -134t279 -240t105.5 -302zM128 -8h1792q-33 186 -235 327t-489 177l-56 8v328l24 20q68 49 124 212l12 40h44
q0 1 4.5 7.5t11.5 19.5t12 29q12 36 12 56l-56 -4l12 96q8 58 4 80q-13 124 32 224q8 24 8 32q-16 48 -53.5 81t-87 48.5t-92 21t-87.5 5.5h-28q-47 -2 -75.5 -13.5t-37.5 -23.5t-19 -35q-10 -18 -15 -25t-18.5 -22.5t-32 -23.5t-42.5 -9q-64 -6 -79.5 -43t-12.5 -161v-48
q0 -36 8 -116l12 -88l-64 16q1 -4 4 -12.5t5.5 -17.5t6.5 -18q8 -24 20.5 -38t19.5 -14l36 -8l8 -32q58 -175 132 -224l24 -16v-324l-52 -4q-293 -36 -496.5 -177t-239.5 -331z" />
    <glyph glyph-name="uE603" unicode="&#xe603;" 
d="M1144 600q0 49 -35 84.5t-85 35.5t-85 -35.5t-35 -84.5q0 -71 60 -104v-260h120v260q27 15 43.5 43t16.5 61zM1808 900q0 74 -53.5 127t-126.5 53v240q0 122 -48 234t-129 193t-193 129t-234 48t-234 -48t-193 -129t-129 -193t-48 -234h124q0 132 64.5 243.5t175 176
t240.5 64.5t240.5 -64.5t175 -176t64.5 -243.5v-240h-1080q-75 0 -129.5 -52.5t-54.5 -127.5v-852q0 -75 54.5 -127.5t129.5 -52.5h1200q75 0 129.5 52.5t54.5 127.5v852zM1684 900v-852q0 -25 -17 -42.5t-43 -17.5h-1200q-26 0 -43 17.5t-17 42.5v852q0 27 16.5 43.5
t43.5 16.5h1200q27 0 43.5 -16.5t16.5 -43.5z" />
    <glyph glyph-name="uE604" unicode="&#xe604;" 
d="M256 1300q-96 -144 -60 -316t180 -268q114 -72 236 -72q188 0 324 160l-92 80q-84 -99 -191 -116.5t-209 48.5q-105 69 -129 192.5t45 231.5l168 312q69 102 192 127.5t228 -43.5l64 100q-95 63 -207 69.5t-214 -44.5t-167 -149zM488 952q123 123 298 123t298 -123
t123 -298t-123 -298l-364 -364q-124 -124 -300 -124q-178 0 -296 124q-123 123 -123 298t123 298l124 128l88 -84l-128 -128q-87 -90 -87 -214t87 -214q87 -87 212 -87t212 87l364 364q90 90 90 214t-90 214q-87 87 -212 87t-212 -87l-16 -16l-84 84zM1320 1076v120h492
v-120h-492zM1264 916l60 104l236 -136l-60 -104zM1296 1780l104 -60l-192 -328l-104 60zM1912 1592l-600 -348l-64 104l604 348z" />
    <glyph glyph-name="uE605" unicode="&#xe605;" 
d="M1316 1676h432v-120h-1328v120h432q21 82 85 133t147 51t148.5 -52.5t83.5 -131.5zM1084 1740q-32 0 -60 -18t-44 -46h208q-36 64 -104 64zM1568 1440v-1268q0 -24 -18.5 -42t-45.5 -18h-840q-26 0 -43 17.5t-17 42.5v1268h-124v-1268q0 -75 54.5 -127.5t129.5 -52.5h840
q75 0 129.5 52.5t54.5 127.5v1268h-120zM964 1316h-120v-964h120v964zM1324 1316h-120v-964h120v964z" />
    <glyph glyph-name="uE606" unicode="&#xe606;" 
d="M1384 700q-78 0 -168 24q-122 -128 -312 -128q-81 0 -158 28.5t-134 79.5q-12 0 -35 -2t-33 -2q-148 0 -273 67t-198 182t-73 251t73 251t198 182t273 67q150 0 276 -72q90 135 241.5 213.5t322.5 78.5q181 0 334 -81.5t241.5 -221.5t88.5 -305t-88.5 -306t-241.5 -223.5
t-334 -82.5zM1172 860l40 -12q112 -28 172 -28q148 0 273 66t198 179t73 247q0 132 -73 244.5t-198.5 178t-272.5 65.5q-156 0 -289 -77.5t-199 -206.5l-32 -64l-60 40q-111 88 -260 88q-176 0 -300 -111.5t-124 -268.5t124 -268.5t300 -111.5q28 0 76 8l32 8l24 -24
q42 -45 102 -70.5t126 -25.5q73 0 137.5 29.5t106.5 82.5zM1384 656q102 0 173 -70.5t71 -169.5q0 -102 -71 -173t-173 -71q-99 0 -169.5 71t-70.5 173q0 99 70.5 169.5t169.5 70.5zM1384 292q51 0 85.5 36.5t34.5 87.5q0 49 -35 84.5t-85 35.5q-48 0 -84 -36t-36 -84
q0 -51 36 -87.5t84 -36.5zM1836 232q63 0 107.5 -44t44.5 -104q0 -63 -44.5 -107.5t-107.5 -44.5q-60 0 -104 44.5t-44 107.5q0 60 44 104t104 44zM1808 84q0 -17 15 -24t30 0t15 24q0 12 -10 20t-22 8t-20 -8t-8 -20z" />
    <glyph glyph-name="uE607" unicode="&#xe607;" 
d="M2052 956v-120h-248q-14 -189 -113.5 -349.5t-260.5 -258.5t-350 -112v-244h-120v244q-188 16 -347 114t-257 257.5t-112 348.5h-248v120h248q14 189 112 348.5t257 257.5t347 114v248h120v-248q191 -14 352 -112.5t259.5 -258t112.5 -349.5h248zM1080 236
q240 21 411.5 190.5t192.5 409.5h-236v120h236q-21 240 -192.5 409.5t-411.5 190.5v-232h-120v232q-237 -24 -406 -193.5t-190 -406.5h236v-120h-236q21 -237 190 -406.5t406 -193.5v240h120v-240z" />
    <glyph glyph-name="uE608" unicode="&#xe608;" 
d="M1080 1800l488 -348v-1464l-488 336l-480 -336v1464zM1448 220v1168l-368 264l-360 -260v-1172l360 252zM872 1196q0 87 62.5 149.5t149.5 62.5t149.5 -62.5t62.5 -149.5t-62.5 -147.5t-149.5 -60.5t-149.5 60.5t-62.5 147.5zM1084 1288q-36 0 -62 -26.5t-26 -65.5
q0 -36 26 -62t62 -26q39 0 65.5 26t26.5 62q0 39 -26.5 65.5t-65.5 26.5z" />
    <glyph glyph-name="uE609" unicode="&#xe609;" 
d="M1116 172q0 38 -27.5 65t-64.5 27t-64.5 -27t-27.5 -65q0 -36 28 -62t64 -26t64 26t28 62zM1928 1740q0 75 -49.5 127.5t-118.5 52.5h-1472q-69 0 -118.5 -52.5t-49.5 -127.5v-1688q0 -75 49.5 -127.5t118.5 -52.5h1472q69 0 118.5 52.5t49.5 127.5v1688zM1808 1740
v-1688q0 -24 -15 -42t-33 -18h-1472q-18 0 -33 18t-15 42v1688q0 24 15 42t33 18h1472q18 0 33 -18t15 -42zM360 1680v-1328h1328v1328h-1328zM480 476v1084h1088v-1084h-1088z" />
    <glyph glyph-name="uE60A" unicode="&#xe60a;" 
d="M2004 1076l-604 -444l232 -712l-608 440l-608 -440l232 712l-604 444h748l232 712l232 -712h748zM1400 236l-144 444l380 276h-468l-144 444l-144 -444h-468l380 -276l-144 -444l376 276z" />
    <glyph glyph-name="uE60B" unicode="&#xe60b;" 
d="M784 1560q128 0 238.5 -66t177.5 -178h124v-1264q0 -75 -52.5 -127.5t-127.5 -52.5h-724q-73 0 -126.5 53t-53.5 127v1264h128q63 112 175.5 178t240.5 66zM784 1440q-77 0 -148.5 -33t-119.5 -91h536q-52 58 -121.5 91t-146.5 33zM1204 52v1144h-844v-1144q0 -24 18 -42
t42 -18h724q24 0 42 18t18 42zM964 1920v-360h-360v360h360zM844 1680v120h-120v-120h120zM1440 1736l376 64l-20 120l-720 -120l8 -64l-8 -60l720 -120l20 120z" />
    <glyph glyph-name="uE60C" unicode="&#xe60c;" 
d="M1384 1440q0 -134 -85 -234.5t-215 -121.5v-972h240v-120h-600v120h240v972q-130 21 -215 121.5t-85 234.5q0 148 105.5 254t254.5 106t254.5 -106t105.5 -254zM784 1440q0 -102 70.5 -173t169.5 -71t169.5 71t70.5 173q0 99 -70.5 169.5t-169.5 70.5t-169.5 -70.5
t-70.5 -169.5zM544 1656l-96 76q-96 -122 -96 -264q0 -146 96 -268l96 76q-72 84 -72 192q0 104 72 188zM240 1468q0 197 136 352l-92 80q-164 -196 -164 -432q0 -240 164 -436l92 80q-136 155 -136 356zM1696 1468q0 142 -96 264l-96 -76q72 -84 72 -188q0 -108 -72 -192
l96 -76q96 122 96 268zM1928 1468q0 236 -164 432l-92 -80q136 -155 136 -352q0 -201 -136 -356l92 -80q164 196 164 436z" />
    <glyph glyph-name="uE60D" unicode="&#xe60d;" 
d="M332 416q87 0 149.5 -62.5t62.5 -149.5t-62.5 -149.5t-149.5 -62.5t-149.5 62.5t-62.5 149.5t62.5 149.5t149.5 62.5zM332 112q36 0 62 26.5t26 65.5q0 36 -26 62t-62 26q-39 0 -65.5 -26t-26.5 -62q0 -39 26.5 -65.5t65.5 -26.5zM1356 416q87 0 149.5 -62.5t62.5 -149.5
t-62.5 -149.5t-149.5 -62.5t-149.5 62.5t-62.5 149.5t62.5 149.5t149.5 62.5zM1356 112q36 0 62 26.5t26 65.5q0 36 -26 62t-62 26q-39 0 -65.5 -26t-26.5 -62q0 -39 26.5 -65.5t65.5 -26.5zM1612 1680h436v-120h-332l-32 -192l-124 -896h-1436l-132 968h1584zM1556 1316
h-1428l20 -120h1392zM232 592h1224l68 484h-1360z" />
    <glyph glyph-name="uE60E" unicode="&#xe60e;" 
d="M332 416q87 0 149.5 -62.5t62.5 -149.5t-62.5 -149.5t-149.5 -62.5t-149.5 62.5t-62.5 149.5t62.5 149.5t149.5 62.5zM332 112q36 0 62 26.5t26 65.5q0 36 -26 62t-62 26q-39 0 -65.5 -26t-26.5 -62q0 -39 26.5 -65.5t65.5 -26.5zM1356 416q87 0 149.5 -62.5t62.5 -149.5
t-62.5 -149.5t-149.5 -62.5t-149.5 62.5t-62.5 149.5t62.5 149.5t149.5 62.5zM1356 112q36 0 62 26.5t26 65.5q0 36 -26 62t-62 26q-39 0 -65.5 -26t-26.5 -62q0 -39 26.5 -65.5t65.5 -26.5zM1612 1680h436v-120h-332l-28 -188l-128 -900h-1436l-132 968h1584zM1456 592
l100 724h-1428l104 -724h1224zM1324 716v476h-120v-356h-724v356h-120v-476h964zM480 1564v116h724v-112h120v232h-964v-236h120z" />
    <glyph glyph-name="uE60F" unicode="&#xe60f;" 
d="M1024 1200q125 0 212.5 -88t87.5 -212q0 -126 -87 -213t-213 -87t-213 87t-87 213q0 124 87.5 212t212.5 88zM1024 720q75 0 127.5 52.5t52.5 127.5t-52.5 127.5t-127.5 52.5t-127.5 -52.5t-52.5 -127.5t52.5 -127.5t127.5 -52.5zM2040 784l-312 -96q-18 -73 -56 -136
l152 -288q-67 -84 -164 -168l-288 156q-74 -41 -136 -56l-96 -312q-72 -8 -116 -8t-116 8l-96 312q-62 15 -136 56l-288 -156q-97 84 -164 168l152 284q-39 71 -56 140l-312 96q-8 72 -8 116t8 116l312 96q15 62 56 136l-152 288q73 91 164 164l288 -152q74 41 136 56
l96 312q72 8 116 8t116 -8l96 -312q86 -29 136 -56l288 152q91 -73 164 -164l-152 -288q41 -74 56 -136l312 -96q8 -72 8 -116t-8 -116zM1632 784l296 88v28v24l-232 72l-64 16l-20 64q-19 64 -48 116l-28 56l28 56l116 216l-36 36l-272 -144l-56 28q-52 29 -116 48l-60 20
l-20 60l-72 236h-24h-24l-72 -236l-20 -60l-60 -20q-64 -19 -116 -48l-56 -28l-272 144l-36 -36l144 -272l-28 -56q-29 -52 -48 -116l-20 -64l-296 -88v-24v-28l296 -88l20 -60q19 -64 48 -116l28 -56l-144 -272l36 -36l272 144l56 -32q52 -29 116 -48l60 -16l20 -64
l72 -232h24h24l72 232l20 64l60 16q106 42 116 48l56 32l272 -144l36 36l-116 212l-28 60l28 56q29 52 48 116z" />
    <glyph glyph-name="uE610" unicode="&#xe610;" 
d="M2000 8l-84 -84l-624 624q-103 -91 -234.5 -141.5t-273.5 -50.5q-159 0 -304 62t-250.5 167.5t-167.5 250.5t-62 304q0 157 59 301.5t169 254.5q112 109 255.5 168.5t300.5 59.5q159 0 304 -62t250.5 -167.5t167.5 -250.5t62 -304q0 -142 -50.5 -273.5t-141.5 -234.5z
M784 476q179 0 331 89.5t240.5 242.5t88.5 332t-88.5 332t-240.5 242.5t-331 89.5q-134 0 -254 -51t-214 -145q-95 -92 -145.5 -213.5t-50.5 -254.5q0 -134 52.5 -257t141 -212t212 -142t258.5 -53z" />
    <glyph glyph-name="uE611" unicode="&#xe611;" 
d="M2000 4l-84 -84l-624 624q-103 -91 -234.5 -141.5t-273.5 -50.5q-159 0 -304 62t-250.5 167.5t-167.5 250.5t-62 304t58.5 302t169.5 254t254 169.5t302 58.5t304 -62t250.5 -167.5t167.5 -250.5t62 -304q0 -142 -50.5 -273.5t-141.5 -234.5zM784 476q179 0 331 88.5
t240.5 240.5t88.5 331q0 136 -52.5 259t-141 211.5t-210.5 141t-256 52.5q-278 0 -468 -196q-196 -190 -196 -468q0 -134 52.5 -256t141 -210.5t211.5 -141t259 -52.5zM844 1196v244h-120v-244h-244v-120h244v-240h120v240h240v120h-240z" />
    <glyph glyph-name="uE612" unicode="&#xe612;" 
d="M2000 8l-84 -84l-624 624q-103 -91 -234.5 -141.5t-273.5 -50.5q-159 0 -304 62t-250.5 167.5t-167.5 250.5t-62 304q0 157 59 301.5t169 254.5q112 109 255.5 168.5t300.5 59.5q159 0 304 -62t250.5 -167.5t167.5 -250.5t62 -304q0 -142 -50.5 -273.5t-141.5 -234.5z
M784 476q179 0 331 89.5t240.5 242.5t88.5 332t-88.5 332t-240.5 242.5t-331 89.5q-134 0 -254 -51t-214 -145q-95 -92 -145.5 -213.5t-50.5 -254.5q0 -134 52.5 -257t141 -212t212 -142t258.5 -53zM480 1200v-120h604v120h-604z" />
    <glyph glyph-name="uE613" unicode="&#xe613;" 
d="M1568 596q147 0 253.5 -107t106.5 -257q0 -147 -106.5 -253.5t-253.5 -106.5q-150 0 -257 106.5t-107 253.5q0 128 88 236l-268 284l-268 -284q88 -108 88 -236q0 -147 -107 -253.5t-257 -106.5q-147 0 -253.5 106.5t-106.5 253.5q0 150 106.5 257t253.5 107
q96 0 180 -52l280 296l-752 796l88 84l748 -792l748 792l88 -84l-752 -796l280 -296q84 52 180 52zM480 -8q102 0 173 70.5t71 169.5q0 102 -71 173t-173 71q-99 0 -169.5 -71t-70.5 -173q0 -99 70.5 -169.5t169.5 -70.5zM1568 -8q99 0 169.5 70.5t70.5 169.5
q0 102 -70.5 173t-169.5 71q-102 0 -173 -71t-71 -173q0 -99 71 -169.5t173 -70.5z" />
    <glyph glyph-name="uE614" unicode="&#xe614;" 
d="M604 1920h840v-2048h-840v2048zM1324 -8v1808h-600v-120h240v-120h-240v-120h120v-124h-120v-120h240v-120h-240v-120h120v-124h-120v-116h240v-120h-240v-120h120v-124h-120v-120h240v-120h-240v-120h600z" />
    <glyph glyph-name="uE615" unicode="&#xe615;" 
d="M540 1920q75 0 127.5 -52.5t52.5 -127.5v-1284l-296 -596l-304 596v1284q0 75 54.5 127.5t129.5 52.5h236zM304 1800q-27 0 -45.5 -18t-18.5 -42v-124h360v124q0 25 -17 42.5t-43 17.5h-236zM240 1372h360v124h-360v-124zM476 232l124 252v768h-116v-780h-120v780h-124
v-768l132 -252h104zM964 1920h844v-2048h-844v2048zM1688 -8v1808h-604v-120h240v-120h-240v-120h120v-124h-120v-120h240v-120h-240v-120h120v-124h-120v-116h240v-120h-240v-120h120v-124h-120v-120h240v-120h-240v-120h604z" />
    <glyph glyph-name="uE616" unicode="&#xe616;" 
d="M1448 1920l600 -600l-1448 -1448l-600 600zM172 472l428 -428l1276 1276l-428 428l-84 -84l172 -172l-88 -84l-168 168l-84 -84l84 -84l-84 -88l-88 88l-84 -88l168 -168l-84 -88l-172 172l-84 -84l84 -88l-84 -84l-84 84l-84 -84l168 -168l-84 -88l-168 172l-88 -84
l88 -88l-88 -84l-84 84l-88 -84l172 -172l-84 -84l-172 168z" />
    <glyph glyph-name="uE617" unicode="&#xe617;" 
d="M428 1800h1140v-1860l-576 392l-564 -396v1864zM1444 168v1512h-896v-1512l444 308z" />
    <glyph glyph-name="uE618" unicode="&#xe618;" 
d="M1208 708l-364 244l-364 -244v1212h728v-1212zM600 932l244 168l244 -168v868h-488v-868zM1928 1800h-604v-120h484v-1568h-1568v1568h120v120h-240v-1808h1808v1808z" />
    <glyph glyph-name="uE619" unicode="&#xe619;" 
d="M724 956v120h-508q42 186 159 334t287.5 231t361.5 83q276 0 498.5 -168.5t297.5 -435.5l116 32q-87 306 -340.5 499t-571.5 193q-310 0 -560 -185t-344 -475v496h-120v-724h724zM1324 836h724v-724h-120v496q-94 -290 -344 -475t-560 -185q-318 0 -571.5 193t-340.5 499
l116 32q75 -267 297.5 -435.5t498.5 -168.5q191 0 361.5 83t287.5 231t159 334h-508v120z" />
    <glyph glyph-name="uE61A" unicode="&#xe61a;" 
d="M1928 836v120h-844v844h-120v-844h-844v-120h844v-844h120v844h844z" />
    <glyph glyph-name="uE61B" unicode="&#xe61b;" 
d="M1444 1376q0 -158 -105 -276.5t-259 -139.5v-968h-120v972q-154 24 -255 140.5t-101 271.5q0 177 123 300.5t297 123.5t297 -123.5t123 -300.5zM1024 1076q125 0 212.5 88t87.5 212q0 126 -87 215t-213 89t-213 -89t-87 -215q0 -124 87.5 -212t212.5 -88zM1204 1316
q0 102 -70.5 173t-169.5 71v-120q51 0 85.5 -36.5t34.5 -87.5h120z" />
    <glyph glyph-name="uE61C" unicode="&#xe61c;" 
d="M1872 1576q51 -54 51 -128t-51 -128l-1092 -1092l-632 -212l208 636l1092 1092q51 51 126 51t126 -51zM372 320l76 -76l236 80l-232 232zM524 652l256 -252l660 660l-252 256zM1272 1400l252 -256l88 88l-252 256zM1784 1404q18 18 18 44t-18 44l-168 168q-18 18 -42 18
t-42 -18l-88 -88l256 -252z" />
    <glyph glyph-name="uE61D" unicode="&#xe61d;" 
d="M1988 1696q52 -52 52 -124q0 -76 -52 -128l-908 -908l-632 -212l208 636l908 908q51 51 128 51t128 -51zM672 624l76 -76l232 80l-232 232zM824 956l252 -252l480 480l-252 252zM1388 1524l256 -256l88 88l-256 252zM1904 1528q16 24 16 44q0 16 -16 40l-172 168
q-15 18 -40.5 18t-43.5 -18l-88 -84l256 -256zM1808 1016v-1024h-1688v1568h784v120h-904v-1808h1928v1144h-120z" />
    <glyph glyph-name="uE61E" unicode="&#xe61e;" 
d="M1808 1680h120v-120h-120v-364h-1568v364h-60q-24 0 -42 -18.5t-18 -45.5v-360q0 -24 18 -42t42 -18h724q75 0 127.5 -52.5t52.5 -127.5v-180h120v-844h-360v844h120v180q0 24 -18 42t-42 18h-724q-75 0 -127.5 52.5t-52.5 127.5v360q0 75 52.5 129.5t127.5 54.5h60v240
h1568v-240zM1084 -8v604h-120v-604h120zM1688 1316v484h-1328v-484h1328z" />
    <glyph glyph-name="uE61F" unicode="&#xe61f;" 
d="M2012 736h-432l-672 -668q-56 -56 -136 -56t-136 56l-580 584q-56 56 -56 136t56 136l268 268q-124 124 -124 300q0 174 124 304q124 124 304 124q176 0 300 -124l16 16zM320 1492q0 -122 88 -216l436 436q-94 88 -216 88q-128 0 -220 -92q-88 -88 -88 -216zM824 152
l440 444h-980l436 -444q27 -20 52 -20t52 20zM1384 716l144 140h196l-780 784l-804 -800q-20 -20 -20 -52q0 -25 20 -52l24 -20h1220zM1888 480q49 -69 104.5 -172.5t55.5 -163.5q0 -87 -62.5 -149.5t-149.5 -62.5t-147.5 62.5t-60.5 149.5q0 60 56 161.5t108 174.5l48 72z
M1836 52q39 0 65.5 26.5t26.5 65.5q0 45 -88 192q-92 -149 -92 -192q0 -39 26 -65.5t62 -26.5z" />
    <glyph glyph-name="uE620" unicode="&#xe620;" 
d="M1024 1860q196 0 374.5 -76.5t307.5 -205.5t205.5 -307.5t76.5 -374.5t-76.5 -374.5t-205.5 -307.5t-307.5 -205.5t-374.5 -76.5t-374.5 76.5t-307.5 205.5t-205.5 307.5t-76.5 374.5t76.5 374.5t205.5 307.5t307.5 205.5t374.5 76.5zM1024 1740q-171 0 -327 -67
t-269.5 -180.5t-180.5 -269.5t-67 -327q0 -155 54.5 -296.5t153.5 -255.5l1188 1188q-114 99 -255.5 153.5t-296.5 54.5zM1024 52q171 0 327 67t269.5 180.5t180.5 269.5t67 327q0 155 -54.5 296.5t-153.5 255.5l-1188 -1188q114 -99 255.5 -153.5t296.5 -54.5z" />
    <glyph glyph-name="uE621" unicode="&#xe621;" 
d="M1504 1920q75 0 129.5 -52.5t54.5 -127.5v-1688q0 -75 -54.5 -127.5t-129.5 -52.5h-960q-75 0 -129.5 52.5t-54.5 127.5v1688q0 75 54.5 127.5t129.5 52.5h960zM544 1800q-27 0 -45.5 -18t-18.5 -42v-180h1088v180q0 24 -18.5 42t-45.5 18h-960zM1568 1440h-1088v-964
h1088v964zM1504 -8q27 0 45.5 18t18.5 42v300h-1088v-300q0 -24 18.5 -42t45.5 -18h960zM1084 172q0 26 -17.5 43t-42.5 17t-42.5 -17t-17.5 -43q0 -24 18 -42t42 -18t42 18t18 42z" />
    <glyph glyph-name="uE622" unicode="&#xe622;" 
d="M1808 956h-1568v-120h1568v120z" />
    <glyph glyph-name="uE623" unicode="&#xe623;" 
d="M1024 1920q122 0 234 -48t193 -129t129 -193t48 -234q0 -123 -49 -235.5t-139 -196.5q-12 -12 -36 -28l-12 -12q-12 -9 -36.5 -24.5t-31.5 -19.5v-868l-304 228l-296 -228v868q-7 4 -31.5 19.5t-36.5 24.5l-12 12q-24 16 -36 28q-90 84 -139 196.5t-49 235.5
q0 122 48 234t129 193t193 129t234 48zM1204 176v508q-78 -28 -180 -28t-180 28v-508l176 136zM1356 968q148 142 148 348q0 132 -64.5 243.5t-175 176t-240.5 64.5t-240.5 -64.5t-175 -176t-64.5 -243.5q0 -206 148 -348q4 -2 12 -8t12 -8l16 -12q129 -102 292.5 -102
t295.5 102l12 12q4 2 12 8t12 8zM1320 1496l-236 -44v228h-120v-228l-228 44l-20 -116l212 -44l-136 -232l100 -60l132 220l132 -220l104 60l-140 232l220 44z" />
    <glyph glyph-name="uE624" unicode="&#xe624;" 
d="M1024 1920q122 0 234 -48t193 -129t129 -193t48 -234q0 -123 -49 -235.5t-139 -196.5q-12 -12 -36 -28l-12 -12q-12 -9 -36.5 -24.5t-31.5 -19.5v-868l-304 228l-296 -228v868q-7 4 -31.5 19.5t-36.5 24.5l-12 12q-24 16 -36 28q-90 84 -139 196.5t-49 235.5
q0 122 48 234t129 193t193 129t234 48zM1204 176v508q-78 -28 -180 -28t-180 28v-508l176 136zM1356 968q148 142 148 348q0 132 -64.5 243.5t-175 176t-240.5 64.5t-240.5 -64.5t-175 -176t-64.5 -243.5q0 -206 148 -348q4 -2 12 -8t12 -8l16 -12q129 -102 292.5 -102
t295.5 102l12 12q4 2 12 8t12 8zM1236 1316q0 89 -62 150.5t-150 61.5t-150 -61.5t-62 -150.5q0 -87 62.5 -147.5t149.5 -60.5t149.5 60.5t62.5 147.5z" />
    <glyph glyph-name="uE625" unicode="&#xe625;" 
d="M1284 1800q71 0 115.5 -56t44.5 -144v-512h-120v512q0 80 -40 80h-80v-1364l-224 -280h-16v-80l-120 -84v164h-20l-220 280v1420v19.5v19.5t0.5 17.5t1.5 18.5t2.5 16.5t4.5 17.5t6.5 14.5t8.5 15t12 13.5q32 32 84 32h300q54 0 100.5 -33t67.5 -87h92zM724 1800v-64
v-420h360v404q0 33 -18 56.5t-42 23.5h-300zM924 160l160 200v836h-360v-836l160 -200h40z" />
    <glyph glyph-name="uE626" unicode="&#xe626;" 
d="M1888 1236q58 -58 40 -136q-13 -70 -68 -120l-360 -364l-88 84l364 364q29 29 36 56q0 20 -12 32l-52 52l-1048 -1048l-356 -40l-12 12l-60 -56l-144 24l116 120l-12 12l40 356l1088 1088q4 4 18 17t19 17t17 14t19.5 13.5t18.5 9t21.5 7.5t22.5 2q44 0 80 -36l212 -212
q52 -52 52 -136q-7 -42 -20 -68zM644 272l676 676l-256 256l-676 -676l-28 -256l28 -28zM1408 1036l284 284q21 21 28 56q0 23 -16 44l-212 208q-4 0 -44 -40l-296 -296z" />
    <glyph glyph-name="uE627" unicode="&#xe627;" 
d="M1824 852l84 88l-884 884l-884 -884l84 -88l740 740v-1600h120v1600z" />
    <glyph glyph-name="uE628" unicode="&#xe628;" 
d="M1892 900l-884 884l-88 -84l740 -740h-1540v-120h1540l-740 -740l88 -88z" />
    <glyph glyph-name="uE629" unicode="&#xe629;" 
d="M1928 840v120h-1540l740 740l-88 84l-884 -884l884 -888l88 88l-740 740h1540z" />
    <glyph glyph-name="uE62A" unicode="&#xe62a;" 
d="M1908 852l-84 88l-740 -740v1600h-120v-1600l-740 740l-84 -88l884 -884z" />
    <glyph glyph-name="uE62B" unicode="&#xe62b;" 
d="M1144 600q0 49 -35 84.5t-85 35.5t-85 -35.5t-35 -84.5q0 -71 60 -104v-260h120v260q27 15 43.5 43t16.5 61zM1804 900q0 75 -52 127.5t-124 52.5v240q0 122 -48 234t-129 193t-193 129t-234 48t-234 -48t-193 -129t-129 -193t-48 -234v-240q-75 0 -127.5 -52.5
t-52.5 -127.5v-852q0 -75 52.5 -127.5t127.5 -52.5h1204q73 0 126.5 53t53.5 127v852zM544 1080v240q0 132 64.5 243.5t175 176t240.5 64.5t240.5 -64.5t175 -176t64.5 -243.5v-240h-960zM1684 900v-852q0 -24 -18 -42t-42 -18h-1204q-26 0 -43 17.5t-17 42.5v852
q0 27 16.5 43.5t43.5 16.5v0h1208q22 -3 39 -20t17 -40z" />
    <glyph glyph-name="uE62C" unicode="&#xe62c;" 
d="M236 1684l1700 -636l-916 -148l-144 -916zM916 1004l552 88l-1024 384l384 -1024z" />
    <glyph glyph-name="uE62D" unicode="&#xe62d;" 
d="M1564 1084q123 123 123 298t-123 298t-298 123t-298 -123l-360 -360q-123 -123 -123 -298t123 -298q124 -124 300 -124q172 0 296 124l-84 84q-90 -87 -214 -87t-214 87q-87 90 -87 214t87 214l360 360q90 87 214 87t214 -87q87 -90 87 -214t-87 -214l-116 -112l88 -84z
M728 952q123 123 298 123t298 -123t123 -298t-123 -298l-364 -364q-124 -124 -300 -124q-178 0 -296 124q-123 123 -123 298t123 298l128 128l84 -84l-128 -128q-87 -90 -87 -214t87 -214q90 -87 214 -87t214 87l364 364q87 90 87 214t-87 214q-90 87 -214 87t-214 -87
l-16 -16l-84 84z" />
    <glyph glyph-name="uE62E" unicode="&#xe62e;" 
d="M0 1920h2048v-2048h-2048v2048zM120 1196v-1204h1084v1204h-1084zM1928 -8v1204h-604v-1204h604zM120 1316h1808v484h-1808v-484z" />
    <glyph glyph-name="uE62F" unicode="&#xe62f;" 
d="M1568 1800v-1324h-1568v1324h1568zM1444 596v1084h-1324v-1084h1324zM2048 1316h-364v-120h244v-1084h-1324v244h-124v-364h1568v1324z" />
    <glyph glyph-name="uE630" unicode="&#xe630;" 
d="M1324 1800v-1084h-1324v1084h1324zM1204 836v844h-1084v-844h1084zM1688 352v1088h-240v-124h120v-840h-1088v116h-120v-240h1328zM2048 1076h-240v-120h120v-844h-1084v120h-120v-240h1324v1084z" />
    <glyph glyph-name="uE631" unicode="&#xe631;" 
d="M1784 1160l-208 212l-84 -84l208 -212l-84 -84l-212 208l-632 -628q68 -93 68 -216q0 -148 -105.5 -254t-254.5 -106t-254.5 106t-105.5 254q0 150 105 257t255 107q114 0 204 -64l984 976l84 -88l-92 -88l208 -208zM480 116q99 0 169.5 70.5t70.5 169.5q0 102 -70.5 173
t-169.5 71t-169.5 -71t-70.5 -173q0 -99 70.5 -169.5t169.5 -70.5z" />
    <glyph glyph-name="uE632" unicode="&#xe632;" 
d="M1024 272l584 584l-84 84l-440 -436v1300h-120v-1300l-440 436l-84 -84zM1928 832h120v-780q0 -75 -52.5 -127.5t-127.5 -52.5h-1688q-75 0 -127.5 52.5t-52.5 127.5v780h120v-780q0 -24 18 -42t42 -18h1688q24 0 42 18t18 42v780z" />
    <glyph glyph-name="uE633" unicode="&#xe633;" 
d="M120 1800h1808v-1808h-1808v1808zM1808 112v240h-1568v-240h1568zM240 476h1568v1204h-1568v-1204zM1712 696l-380 368l-160 -172l-312 556l-520 -756l100 -68l408 596l300 -528l188 200l292 -284z" />
    <glyph glyph-name="uE634" unicode="&#xe634;" 
d="M1504 1840q147 0 272.5 -72.5t198.5 -197t73 -270.5q0 -68 -16 -132l-16 -44q-25 -99 -89.5 -215.5t-145.5 -221t-181 -214.5t-186 -193t-170.5 -158.5t-125 -109.5t-58.5 -48l-36 -28l-36 28q-2 2 -12 10q-41 34 -77.5 65t-125 112t-162.5 155t-170.5 181t-170 205
t-139.5 212.5t-99 215.5l-12 44q-20 65 -20 136q0 146 73 270.5t198.5 197t272.5 72.5q153 0 281 -80t199 -212q71 132 199 212t281 80zM1916 1200q12 54 12 100q0 174 -123.5 297t-300.5 123q-174 0 -297 -123t-123 -297v-32h-120v32q0 174 -123 297t-297 123
q-177 0 -300.5 -123t-123.5 -297q0 -51 16 -104l12 -36q33 -102 101 -217t155 -223t174 -205t182 -187t153 -142.5t111 -97.5q48 40 95 82t131 120.5t156.5 152.5t157.5 170.5t149 183.5t115.5 182.5t71.5 176.5z" />
    <glyph glyph-name="uE635" unicode="&#xe635;" 
d="M20 1164l12 -44q15 -50 60 -140l108 56q-44 88 -52 124l-12 36q-16 53 -16 104q0 174 123.5 297t300.5 123q174 0 297 -123t123 -297h120q0 174 123 297t297 123q177 0 300.5 -123t123.5 -297q0 -46 -12 -100l-16 -44q-10 -46 -48 -128l112 -48q44 102 52 144l16 44
q16 64 16 132q0 146 -73 270.5t-198.5 197t-272.5 72.5q-153 0 -281 -80t-199 -212q-71 132 -199 212t-281 80q-147 0 -272.5 -72.5t-198.5 -197t-73 -270.5q0 -71 20 -136zM1024 88q47 36 108.5 88t147 130.5t180 181t172.5 204.5l96 -72q-58 -76 -126.5 -153.5t-127 -137
t-124.5 -120.5t-109 -98.5t-92 -77t-61 -48.5l-28 -21l-36 -28l-36 28q-7 4 -46.5 33.5t-110.5 91t-150.5 136.5t-175.5 181t-177 214l96 72q80 -105 173.5 -207t179.5 -182t141.5 -127.5t105.5 -87.5zM1708 1028l376 -268l-72 -96l-304 216l-340 -240l-344 240l-340 -240
l-344 240l-304 -216l-72 96l376 268l344 -244l340 244l344 -244z" />
    <glyph glyph-name="uE636" unicode="&#xe636;" 
d="M1688 1388q0 75 -52.5 127.5t-127.5 52.5q-34 0 -64 -12v32q0 75 -50 127.5t-122 52.5q-32 0 -68 -12q-3 69 -55.5 116.5t-124.5 47.5q-71 0 -122.5 -47t-57.5 -117q-30 12 -60 12q-75 0 -129.5 -52.5t-54.5 -127.5v-528l-28 32q-51 60 -115.5 74.5t-124.5 -18.5
q-64 -35 -84 -108q-20 -79 16 -132l396 -844q26 -46 68 -64v-68q0 -25 17 -42.5t43 -17.5q24 0 42 18t18 42v108q0 21 -13.5 37t-34.5 19q-16 4 -36 24l-396 844q-11 16 -4 44q6 25 28 36q1 0 5.5 2t7 2.5t8.5 1.5t11 0.5t12 -2.5t13.5 -6.5t14.5 -12t16 -17.5l136 -152
q29 -29 68 -16q36 12 36 56v688q0 24 18.5 42t45.5 18q21 0 39 -15.5t21 -36.5v-552q0 -27 18 -45.5t42 -18.5t42 18.5t18 45.5v588v4v104q0 27 16.5 43.5t43.5 16.5q24 0 42 -18t18 -42v-96v-4v-592q0 -24 18 -42t42 -18t42 18t18 42v540l4 4q0 21 20 38.5t44 17.5
q25 0 38.5 -18t13.5 -42v-168v-4v-492q0 -24 18 -42t42 -18q26 0 43 17.5t17 42.5v468q3 24 21.5 40t42.5 16q25 0 42.5 -17t17.5 -43v-872q0 -39 -13.5 -98t-24 -92.5t-34.5 -105.5q-4 -11 -11.5 -34.5t-11 -33.5t-9.5 -28.5t-8.5 -29t-6 -24.5t-4.5 -25t-1 -21v-92
q0 -24 18 -42t42 -18q27 0 45.5 18t18.5 42v92q0 43 44 160q5 18 19.5 64t21.5 71.5t16.5 64t14 70.5t4.5 62v872z" />
    <glyph glyph-name="uE637" unicode="&#xe637;" 
d="M1836 1268q12 81 -26 138t-110 66q-73 13 -120 -28q-2 -2 -6 -4t-6 -4l8 116q6 75 -41.5 131t-122.5 65q-71 6 -128 -44q-20 -12 -44 -52v92q0 72 -52 124t-124 52q-75 0 -127.5 -52t-52.5 -124v-92q-24 40 -44 52q-56 50 -128 44q-68 -6 -120 -64q-47 -53 -40 -128
l44 -660l-60 76q-39 69 -115 88t-145 -20q-68 -37 -88 -116q-25 -74 20 -144l424 -732q22 -43 72 -72v-44q0 -24 18 -42t42 -18q27 0 45.5 18t18.5 42v84q0 21 -13.5 37t-34.5 19q-32 13 -44 36l-424 732q-16 21 -8 52q6 31 32 44q24 15 53 6.5t47 -38.5l188 -236
q12 -15 31 -20.5t37 0.5q40 17 40 60l-60 856q-5 19 12 44q13 13 40 20q24 0 40 -16q20 -13 20 -40l64 -640q0 -35 32 -48q28 -14 56 0q16 8 20 12q36 18 36 52l16 796q0 24 16 40t40 16q22 0 39 -17t17 -43l12 -736q0 -23 17.5 -40t42.5 -20h28q27 0 45.5 16t18.5 40
l56 576q10 29 20 36q16 16 44 16q23 -3 37.5 -21t14.5 -43l-36 -640q0 -35 28 -52q19 -13 28 -8q26 -20 56 -8q29 11 36 48l60 400q6 32 24 44q8 8 32 8q18 -4 27 -19t7.5 -29t-2.5 -24l-140 -968q-6 -25 -14.5 -37.5t-25.5 -26.5q-36 -36 -54 -78.5t-18 -121.5v-120
q0 -24 18 -42t42 -18t42 18t18 42v120q0 52 9 73t31 39q17 17 26.5 28.5t22.5 40t19 63.5z" />
    <glyph glyph-name="uE638" unicode="&#xe638;" 
d="M1684 1244q0 80 -56 138t-132 58q-24 0 -64 -8q-18 58 -66 95t-110 37q-28 0 -68 -16q-18 58 -63.5 93t-104.5 35q-63 0 -108.5 -34t-63.5 -94q-48 16 -68 16q-77 0 -130.5 -56.5t-53.5 -135.5v-220l-4 -4v-88q-46 12 -92 4q-37 -9 -69.5 -35t-50.5 -61q-46 -93 -4 -184
l204 -440q12 -51 48 -87.5t84 -48.5v-156q0 -24 18 -42t42 -18t42 18t18 42v212q0 24 -20 44q-16 16 -48 16q-25 -3 -45 11.5t-23 40.5q-4 4 -4 12l-208 448q-16 47 4 76q6 13 16.5 22.5t19.5 9.5q30 7 68 -8v-100q0 -27 18.5 -43.5t45.5 -16.5q25 0 42.5 17t17.5 43v132
v404q0 30 18.5 49t45.5 19q41 0 56 -44v-324q0 -25 17 -42.5t43 -17.5q24 0 42 18t18 42v312v8v88q0 76 64 76q19 0 32 -10t17.5 -26t5.5 -24t1 -16v-96v-244q0 -24 18 -42t42 -18q26 0 43 17.5t17 42.5v244q3 24 19.5 40t40.5 16q27 0 45.5 -18.5t18.5 -45.5v-256
q0 -25 17 -42.5t43 -17.5q25 3 42.5 20t17.5 40v76q0 104 8 116q8 8 48 8q24 0 44 -23t20 -53v-704q0 -33 -12.5 -57t-39.5 -55q-2 -3 -14 -19.5t-16.5 -23.5t-13.5 -23t-13 -28t-7.5 -30t-3.5 -36v-216q0 -25 17 -42.5t43 -17.5q24 0 42 18t18 42v216q0 19 9.5 35t34.5 49
q25 31 37 48t27.5 57.5t15.5 82.5v704z" />
    <glyph glyph-name="uE639" unicode="&#xe639;" 
d="M964 1440h1084v-1568h-2048v1808h728zM676 1560h-556v-484l1808 -4v244h-1016zM120 -8h1808v960l-1808 4v-964z" />
    <glyph glyph-name="uE63A" unicode="&#xe63a;" 
d="M1568 716l-1432 556l1432 556v-1112zM1444 892v760l-976 -380zM1808 1920h-120v-2048h120v2048z" />
    <glyph glyph-name="uE63B" unicode="&#xe63b;" 
d="M1808 1920h-120v-2048h120v2048zM184 1804l348 -488l-352 -476h1388v964h-1384zM1444 1680v-720h-1024l260 352l-260 368h1024z" />
    <glyph glyph-name="uE63C" unicode="&#xe63c;" 
d="M1808 1920h-120v-2048h120v2048zM600 1800v-240h-480v-964h844v240h600v964h-964zM844 836v-120h-604v724h364v-604h240zM720 1680h724v-724h-720v604h-4v120z" />
    <glyph glyph-name="uE63D" unicode="&#xe63d;" 
d="M2044 856q6 -19 0 -44q-117 -294 -397.5 -475t-622.5 -181t-622.5 181t-397.5 475q-6 25 0 44q117 297 397.5 478.5t622.5 181.5t622.5 -181.5t397.5 -478.5zM1024 276q297 0 544.5 154t355.5 406q-108 252 -355.5 406t-544.5 154t-544.5 -154t-355.5 -406
q108 -252 355.5 -406t544.5 -154zM1024 1276q182 0 311 -129.5t129 -310.5q0 -183 -128.5 -311.5t-311.5 -128.5t-311.5 128.5t-128.5 311.5q0 181 129 310.5t311 129.5zM1024 516q132 0 226 94t94 226t-94 226t-226 94t-226 -94t-94 -226t94 -226t226 -94zM1024 1000
q68 0 116 -48.5t48 -115.5q0 -69 -47.5 -116.5t-116.5 -47.5t-116.5 47.5t-47.5 116.5q0 67 48 115.5t116 48.5zM1024 792q18 0 31 13t13 31t-13 31t-31 13t-31 -13t-13 -31t13 -31t31 -13z" />
    <glyph glyph-name="uE63E" unicode="&#xe63e;" 
d="M524 1204l440 452v-1300h120v1300l440 -452l84 84l-584 600l-584 -600zM1928 832h120v-780q0 -75 -52.5 -127.5t-127.5 -52.5h-1688q-75 0 -127.5 52.5t-52.5 127.5v780h120v-780q0 -24 18 -42t42 -18h1688q24 0 42 18t18 42v780z" />
    <glyph glyph-name="uE63F" unicode="&#xe63f;" 
d="M724 108l440 440l84 -88l-584 -584l-588 584l88 88l440 -440v848h120v-848zM660 48h4h-4zM1884 1244l88 88l-588 584l-584 -584l84 -88l440 440v-856h120v856z" />
    <glyph glyph-name="uE640" unicode="&#xe640;" 
d="M240 596v964h1568v-964h-1568zM360 1440v-724h1328v724h-1328zM1868 1800q75 0 127.5 -50t52.5 -122v-1224q0 -70 -53 -121t-127 -51h-1688q-74 0 -127 51t-53 121v1224q0 72 52.5 122t127.5 50h1688zM1928 404v1224q0 21 -18 36.5t-42 15.5h-1688q-24 0 -42 -15.5
t-18 -36.5v-1224q0 -21 18 -36.5t42 -15.5h1688q24 0 42 15.5t18 36.5zM604 112v-120h840v120h-840z" />
    <glyph glyph-name="uE641" unicode="&#xe641;" 
d="M2048 1800v-60q0 -196 -24 -400q-16 -138 -44 -270.5t-69 -253.5t-99 -208.5t-124 -119.5q-40 -20 -72 -20q-42 0 -84 24l-28 20q-161 -250 -420 -280v-240h368v-120h-844v120h356v244q-257 22 -420 276l-28 -16q-39 -28 -84 -28q-32 0 -72 20q-66 32 -124 119.5
t-99 208.5t-69 253.5t-44 270.5q-24 204 -24 400v60h272v60v60h1504v-60v-60h272zM480 616l12 -16q-200 385 -216 1080h-156q6 -162 24 -324q37 -311 115 -517.5t153 -242.5q23 -11 40 0zM1024 348q110 0 202 51.5t155.5 136t113 205.5t79 248t48.5 275.5t26 275.5t8 260
h-1264q1 -89 4.5 -177t13.5 -199.5t25.5 -214t41.5 -212.5t59 -202t81.5 -176.5t106 -143t134.5 -93t166 -34.5zM1904 1356q18 162 24 324h-152q-24 -712 -224 -1088l16 24l28 -20q17 -11 40 0q75 36 153 242.5t115 517.5z" />
    <glyph glyph-name="uE642" unicode="&#xe642;" 
d="M1520 1108l548 460l-208 -1576h-1672l-208 1576l540 -460l508 804zM296 112h1456l16 120h-1488zM1784 352l124 924l-416 -352l-464 760l-480 -760l-408 348l124 -920h1520z" />
    <glyph glyph-name="uE643" unicode="&#xe643;" 
d="M2048 1740q0 75 -52.5 127.5t-127.5 52.5h-1688q-75 0 -127.5 -52.5t-52.5 -127.5v-960q0 -75 52.5 -127.5t127.5 -52.5h60v-496l416 364l-80 92l-216 -188v348h-180q-24 0 -42 18t-18 42v960q0 24 18 42t42 18h1688q24 0 42 -18t18 -42v-960q0 -24 -18 -42t-42 -18h-60
v-120h60q75 0 127.5 52.5t52.5 127.5v960zM1688 772q0 75 -52.5 127.5t-127.5 52.5h-604q-75 0 -127.5 -52.5t-52.5 -127.5v-368q0 -75 52.5 -127.5t127.5 -52.5h104l440 -368v368h60q75 0 127.5 52.5t52.5 127.5v368zM1568 772v-368q0 -24 -18 -42t-42 -18h-180v-232
l-276 232h-148q-24 0 -42 18t-18 42v368q0 24 18 42t42 18h604q24 0 42 -18t18 -42z" />
    <glyph glyph-name="uE644" unicode="&#xe644;" 
d="M1868 1920q75 0 127.5 -52.5t52.5 -127.5v-1204q0 -75 -52.5 -129.5t-127.5 -54.5h-1064l-564 -492v492h-60q-75 0 -127.5 54.5t-52.5 129.5v1204q0 75 52.5 127.5t127.5 52.5h1688zM1928 536v1204q0 24 -18 42t-42 18h-1688q-24 0 -42 -18t-18 -42v-1204q0 -26 17.5 -43
t42.5 -17h180v-352l400 352h1108q25 0 42.5 17t17.5 43z" />
    <glyph glyph-name="uE645" unicode="&#xe645;" 
d="M1868 1920q75 0 127.5 -52.5t52.5 -127.5v-1204q0 -75 -52.5 -129.5t-127.5 -54.5h-1064l-564 -492v492h-60q-75 0 -127.5 54.5t-52.5 129.5v1204q0 75 52.5 127.5t127.5 52.5h1688zM1928 536v1204q0 24 -18 42t-42 18h-1688q-24 0 -42 -18t-18 -42v-1204q0 -26 17.5 -43
t42.5 -17h180v-352l400 352h1108q25 0 42.5 17t17.5 43zM360 1560v-120h1328v120h-1328zM360 1316v-120h1328v120h-1328zM360 1076v-120h724v120h-724z" />
    <glyph glyph-name="uE646" unicode="&#xe646;" 
d="M1108 896l800 800l-84 84l-800 -800l-800 800l-84 -84l800 -800l-800 -800l84 -84l800 800l800 -800l84 84z" />
    <glyph glyph-name="uE647" unicode="&#xe647;" 
d="M1448 1408q0 59 -17.5 116t-53 108t-85.5 89t-120.5 60.5t-151.5 22.5q-104 0 -186 -34.5t-131 -92t-74 -126.5t-25 -143v-1144v-8q0 -105 87.5 -184.5t204.5 -79.5q122 0 215 81.5t93 186.5v176l4 776q0 66 -15.5 112t-43.5 69.5t-57 33t-64 9.5q-184 0 -184 -220v-620
h120v620q0 67 13.5 83.5t50.5 16.5q14 0 21 -2t17 -11t14 -31.5t4 -59.5v-920v-32q0 -53 -56.5 -100.5t-131.5 -47.5q-66 0 -119 43.5t-53 100.5v176v976q0 34 8 69t29.5 73t53.5 67t85.5 48t119.5 19q148 0 228 -83t80 -193v-1020h120v1020z" />
    <glyph glyph-name="uE648" unicode="&#xe648;" 
d="M1972 488l-948 944l-948 -944l88 -88l860 864l860 -864z" />
    <glyph glyph-name="uE649" unicode="&#xe649;" 
d="M1592 900l-948 944l-84 -84l860 -860l-860 -860l84 -88z" />
    <glyph glyph-name="uE64A" unicode="&#xe64a;" 
d="M628 900l860 860l-84 84l-948 -944l948 -948l84 88z" />
    <glyph glyph-name="uE64B" unicode="&#xe64b;" 
d="M1972 1308l-88 84l-860 -860l-860 860l-88 -84l948 -944z" />
    <glyph glyph-name="uE64C" unicode="&#xe64c;" 
d="M1856 1708l-100 64l-988 -1508l-488 436l-80 -88l592 -532z" />
    <glyph glyph-name="uE64D" unicode="&#xe64d;" 
d="M1688 1224v-1112h-1448v1448h892v120h-1012v-1688h1688v1232h-120zM584 940l308 -312l836 1264l100 -64l-916 -1388l-412 412z" />
    <glyph glyph-name="uE64E" unicode="&#xe64e;" 
d="M716 1560h1332v-1448h-2048v1448h368v120h348v-120zM1928 232v844h-188q68 -122 68 -240q0 -130 -64.5 -241.5t-176 -177t-243.5 -65.5q-130 0 -240.5 65.5t-175 177t-64.5 241.5q0 129 68 240h-792v-844h1808zM1688 836q0 150 -107 255t-257 105t-255 -105t-105 -255
t105 -255t255 -105t257 105t107 255zM1640 1196h288v244h-1808v-244h888q139 120 316 120q183 0 316 -120z" />
    <glyph glyph-name="uE64F" unicode="&#xe64f;" 
d="M1984 1652q27 0 45.5 -18.5t18.5 -45.5v-1380q0 -24 -18.5 -42t-45.5 -18h-232q-27 0 -45.5 18t-18.5 42v80l-380 68q-30 -139 -142.5 -229.5t-261.5 -90.5q-174 0 -297 120.5t-123 291.5q0 40 4 60l-124 24v-40q0 -39 -28.5 -67.5t-67.5 -28.5h-172q-39 0 -67.5 28.5
t-28.5 67.5v564q0 39 28.5 67.5t67.5 28.5h172q39 0 67.5 -28.5t28.5 -67.5v-32l1324 484v80q0 27 18.5 45.5t45.5 18.5h232zM904 156q105 0 184.5 62.5t103.5 161.5l-584 108q0 -6 -2 -20t-2 -20q0 -121 87.5 -206.5t212.5 -85.5zM1928 268v1264h-120v-108l-1564 -572v176
h-124v-512h124v160l1564 -288v-120h120z" />
    <glyph glyph-name="uE650" unicode="&#xe650;" 
d="M1916 1704l-100 68l-780 -1144l96 -68zM1084 236q0 99 -70.5 169.5t-169.5 70.5q-17 0 -37 -4.5t-36 -11t-35 -16t-29.5 -16t-24 -15t-14.5 -9.5l-548 -412h660h64q99 0 169.5 71t70.5 173zM964 236q0 -51 -36 -87.5t-84 -36.5h-68h-296l260 196q24 18 56.5 33t47.5 15
q48 0 84 -36t36 -84z" />
    <glyph glyph-name="uE651" unicode="&#xe651;" 
d="M844 352h360v184h-120v-60h-120v60h-120v-184zM2048 596v964h-436q-84 166 -242 263t-346 97t-346 -97t-242 -263h-436v-964h120v-724h1808v724h120zM576 1560q72 112 191.5 176t256.5 64t256.5 -64t191.5 -176h-896zM1808 596v-604h-1568v604h1568zM1928 1440v-724
h-1808v724h1808z" />
    <glyph glyph-name="uE652" unicode="&#xe652;" 
d="M1724 1676l-392 -604h352l-1144 -968l244 728h-204l284 844h860zM1356 952h-244l392 604h-556l-200 -604h200l-156 -480z" />
    <glyph glyph-name="uE653" unicode="&#xe653;" 
d="M1424 956h-588l464 688l-100 68l-592 -876h616l-368 -696l108 -56z" />
    <glyph glyph-name="uE654" unicode="&#xe654;" 
d="M1084 1680h844v-1204h-1808v1204h844v240h120v-240zM1808 596v964h-1568v-964h1568zM420 352v-120h316l-184 -280l100 -64l224 344h88v-360h120v360h88l224 -344l100 64l-180 280h312v120h-1208z" />
    <glyph glyph-name="uE655" unicode="&#xe655;" 
d="M1568 1440h360v-1568h-1808v1568h364v288q0 78 57.5 135t138.5 57h688q81 0 140.5 -57t59.5 -135v-288zM604 1728v-288h840v288q0 30 -21.5 51t-54.5 21h-688q-30 0 -53 -21t-23 -51zM1808 -8v964h-1568v-964h1568zM1808 1076v240h-240v-76h-124v76h-840v-76h-120v76
h-244v-240h1568z" />
    <glyph glyph-name="uE656" unicode="&#xe656;" 
d="M1640 552l344 344l-344 344l-88 -88l200 -196h-668v668l196 -200l88 88l-344 344l-344 -344l88 -88l196 200v-668h-668l200 196l-88 88l-344 -344l344 -344l88 88l-200 196h668v-668l-196 200l-88 -88l344 -344l344 344l-88 88l-196 -200v668h668l-200 -196z" />
    <glyph glyph-name="uE657" unicode="&#xe657;" 
d="M1404 468l-320 -328v1512l320 -328l84 84l-464 476l-464 -476l84 -84l320 328v-1512l-320 328l-84 -84l464 -476l464 476z" />
    <glyph glyph-name="uE658" unicode="&#xe658;" 
d="M2012 896l-476 464l-84 -84l328 -320h-1512l328 320l-84 84l-476 -464l476 -464l84 84l-328 320h1512l-328 -320l84 -84z" />
    <glyph glyph-name="uE659" unicode="&#xe659;" 
d="M1928 552h-120v-352l-700 696l700 696v-352h120v560h-560v-120h352l-696 -700l-696 700h352v120h-560v-560h120v352l700 -696l-700 -696v352h-120v-560h560v120h-352l696 700l696 -700h-352v-120h560v560z" />
    <glyph glyph-name="uE65A" unicode="&#xe65a;" 
d="M1928 1800h-1088v-120h880l-1240 -1240l84 -88l1244 1244v-880h120v1084z" />
    <glyph glyph-name="uE65B" unicode="&#xe65b;" 
d="M1480 352l84 88l-1240 1240h880v120h-1088v-1084h120v880z" />
    <glyph glyph-name="uE65C" unicode="&#xe65c;" 
d="M1024 1224l-524 -528l84 -84l440 440l440 -440l84 84zM2048 896q0 208 -81.5 397.5t-218.5 326.5t-326.5 218.5t-397.5 81.5t-397.5 -81.5t-326.5 -218.5t-218.5 -326.5t-81.5 -397.5t81.5 -397.5t218.5 -326.5t326.5 -218.5t397.5 -81.5t397.5 81.5t326.5 218.5
t218.5 326.5t81.5 397.5zM1928 896q0 -184 -71.5 -351.5t-192.5 -288.5t-288.5 -192.5t-351.5 -71.5t-351.5 71.5t-288.5 192.5t-192.5 288.5t-71.5 351.5t71.5 351.5t192.5 288.5t288.5 192.5t351.5 71.5t351.5 -71.5t288.5 -192.5t192.5 -288.5t71.5 -351.5z" />
    <glyph glyph-name="uE65D" unicode="&#xe65d;" 
d="M824 1420l-84 -84l440 -440l-440 -440l84 -84l528 524zM2048 896q0 208 -81.5 397.5t-218.5 326.5t-326.5 218.5t-397.5 81.5t-397.5 -81.5t-326.5 -218.5t-218.5 -326.5t-81.5 -397.5t81.5 -397.5t218.5 -326.5t326.5 -218.5t397.5 -81.5t397.5 81.5t326.5 218.5
t218.5 326.5t81.5 397.5zM1928 896q0 -184 -71.5 -351.5t-192.5 -288.5t-288.5 -192.5t-351.5 -71.5t-351.5 71.5t-288.5 192.5t-192.5 288.5t-71.5 351.5t71.5 351.5t192.5 288.5t288.5 192.5t351.5 71.5t351.5 -71.5t288.5 -192.5t192.5 -288.5t71.5 -351.5z" />
    <glyph glyph-name="uE65E" unicode="&#xe65e;" 
d="M1308 1336l-84 84l-528 -524l528 -524l84 84l-440 440zM2048 896q0 208 -81.5 397.5t-218.5 326.5t-326.5 218.5t-397.5 81.5t-397.5 -81.5t-326.5 -218.5t-218.5 -326.5t-81.5 -397.5t81.5 -397.5t218.5 -326.5t326.5 -218.5t397.5 -81.5t397.5 81.5t326.5 218.5
t218.5 326.5t81.5 397.5zM1928 896q0 -184 -71.5 -351.5t-192.5 -288.5t-288.5 -192.5t-351.5 -71.5t-351.5 71.5t-288.5 192.5t-192.5 288.5t-71.5 351.5t71.5 351.5t192.5 288.5t288.5 192.5t351.5 71.5t351.5 -71.5t288.5 -192.5t192.5 -288.5t71.5 -351.5z" />
    <glyph glyph-name="uE65F" unicode="&#xe65f;" 
d="M1464 1180l-440 -440l-440 440l-84 -84l524 -528l524 528zM2048 896q0 208 -81.5 397.5t-218.5 326.5t-326.5 218.5t-397.5 81.5t-397.5 -81.5t-326.5 -218.5t-218.5 -326.5t-81.5 -397.5t81.5 -397.5t218.5 -326.5t326.5 -218.5t397.5 -81.5t397.5 81.5t326.5 218.5
t218.5 326.5t81.5 397.5zM1928 896q0 -184 -71.5 -351.5t-192.5 -288.5t-288.5 -192.5t-351.5 -71.5t-351.5 71.5t-288.5 192.5t-192.5 288.5t-71.5 351.5t71.5 351.5t192.5 288.5t288.5 192.5t351.5 71.5t351.5 -71.5t288.5 -192.5t192.5 -288.5t71.5 -351.5z" />
    <glyph glyph-name="uE660" unicode="&#xe660;" 
d="M1024 1188l-824 -824l84 -88l740 744l740 -744l84 88zM1024 1600l-740 -740l-84 88l824 824l824 -824l-84 -88z" />
    <glyph glyph-name="uE661" unicode="&#xe661;" 
d="M1160 896l-824 824l-84 -84l740 -740l-740 -740l84 -84zM920 1720l824 -824l-824 -824l-84 84l740 740l-740 740z" />
    <glyph glyph-name="uE662" unicode="&#xe662;" 
d="M964 896l740 740l-88 84l-824 -824l824 -824l88 84zM1120 1636l-740 -740l740 -740l-84 -84l-828 824l828 824z" />
    <glyph glyph-name="uE663" unicode="&#xe663;" 
d="M1024 636l824 828l-84 84l-740 -740l-740 740l-84 -84zM1024 224l740 740l84 -84l-824 -824l-824 824l84 84z" />
    <glyph glyph-name="uE664" unicode="&#xe664;" 
d="M1164 1920l644 -640v-1408h-1568v2048h924zM1204 1712v-396h396zM360 -8h1328v1204h-604v604h-240v-120h-120v120h-364v-1808zM604 956v-120h120v120h-120zM724 956h120v120h-120v-120zM724 1196h120v120h-120v-120zM604 1196v-120h120v120h-120zM604 1440v-124h120v124
h-120zM724 1440h120v120h-120v-120zM604 1680v-120h120v120h-120zM724 788q99 0 169.5 -70.5t70.5 -169.5q0 -58 -32 -116q-27 -52 -76 -85t-108 -39h-24q-102 0 -173 70.5t-71 169.5t71 169.5t173 70.5zM828 492q16 21 16 56q0 50 -35.5 85t-84.5 35q-51 0 -85.5 -34.5
t-34.5 -85.5t34.5 -85.5t85.5 -34.5h12q60 6 92 64z" />
    <glyph glyph-name="uE665" unicode="&#xe665;" 
d="M1024 1920q209 0 399 -81.5t326.5 -218.5t217.5 -326.5t81 -397.5t-81 -397.5t-217.5 -326.5t-326.5 -218.5t-399 -81.5q-208 0 -397.5 81.5t-326.5 218.5t-218.5 326.5t-81.5 397.5t81.5 397.5t218.5 326.5t326.5 218.5t397.5 81.5zM124 836q12 -195 104 -360h312
q-54 174 -60 360h-356zM480 956q6 186 60 360h-312q-92 -165 -104 -360h356zM668 1316q-62 -180 -68 -360h848q-13 200 -68 360h-712zM600 836q6 -180 68 -360h712q55 160 68 360h-848zM1568 836q-6 -192 -64 -360h320q85 152 104 360h-360zM1568 956h360q-19 208 -104 360
h-316q54 -174 60 -360zM1748 1440q-88 115 -209 198.5t-263 125.5q119 -163 188 -324h284zM1092 1796q-10 0 -33 2t-35 2t-36 -2t-36 -2q-146 -165 -236 -356h616q-92 196 -240 356zM768 1760q-139 -38 -257 -121t-207 -199h280q77 179 184 320zM304 352q88 -115 208 -198.5
t260 -125.5q-119 163 -188 324h-280zM956 -4q12 0 34 -2t34 -2t35 2t33 2q148 160 240 356h-616q92 -196 240 -356zM1276 28q142 42 263 125.5t209 198.5h-284q-75 -176 -188 -324z" />
    <glyph glyph-name="uE666" unicode="&#xe666;" 
d="M1312 372q-36 -168 -166.5 -274t-301.5 -106q-201 0 -342.5 141.5t-141.5 342.5q0 162 100.5 292t259.5 172l-32 116q-198 -51 -323 -213.5t-125 -366.5q0 -122 48 -234t129 -193t193 -129t234 -48q213 0 378 133t210 343zM1928 100h-128l-116 496h-724l-20 244l460 116
l-28 116l-440 -108l-32 480q79 21 131.5 87t52.5 149q0 99 -70.5 169.5t-169.5 70.5t-169.5 -70.5t-70.5 -169.5q0 -83 50 -147t126 -85l64 -976h744l116 -496h224v124zM844 1560q-51 0 -85.5 34.5t-34.5 85.5q0 49 35 84.5t85 35.5q48 0 84 -36t36 -84q0 -50 -35.5 -85
t-84.5 -35z" />
    <glyph glyph-name="uE667" unicode="&#xe667;" 
d="M0 1920h2048v-480h-2048v480zM1928 1560v240h-1808v-240h1808zM0 716v480h2048v-480h-2048zM120 1076v-240h1808v240h-1808zM0 -8v484h2048v-484h-2048zM120 352v-240h1808v240h-1808z" />
    <glyph glyph-name="uE668" unicode="&#xe668;" 
d="M604 1920h1444v-480h-1444v480zM1928 1560v240h-1204v-240h1204zM604 716v480h1444v-480h-1444zM724 1076v-240h1204v240h-1204zM604 -8v484h1444v-484h-1444zM724 352v-240h1204v240h-1204zM0 1440v480h480v-480h-480zM120 1800v-240h240v240h-240zM0 716v480h480v-480
h-480zM120 1076v-240h240v240h-240zM0 -8v484h480v-484h-480zM120 352v-240h240v240h-240z" />
    <glyph glyph-name="uE669" unicode="&#xe669;" 
d="M0 1076v844h844v-844h-844zM120 1800v-604h604v604h-604zM1204 1920h844v-844h-844v844zM1928 1196v604h-604v-604h604zM0 -128v844h844v-844h-844zM120 596v-604h604v604h-604zM1204 -128v844h844v-844h-844zM1324 596v-604h604v604h-604z" />
    <glyph glyph-name="uE66A" unicode="&#xe66a;" 
d="M844 1440h-724v-244h120v120h240v-964h-120v-120h364v120h-120v964h240v-120h120v244h-120zM1808 1440h120v-244h-120v120h-240v-964h120v-120h-364v120h120v964h-240v-120h-120v244h724z" />
    <glyph glyph-name="uE66B" unicode="&#xe66b;" 
d="M2048 -8h-2048v-120h2048v120zM964 1716l-440 -440l-84 84l584 584l584 -584l-84 -84l-440 440v-1364h-120v1364z" />
    <glyph glyph-name="uE66C" unicode="&#xe66c;" 
d="M1808 1800h-364v-120h124v-780q0 -146 -73 -270.5t-198.5 -197t-272.5 -72.5t-272.5 72.5t-198.5 197t-73 270.5v780h124v120h-364v-120h120v-780q0 -179 89.5 -331t242.5 -240.5t332 -88.5t332 88.5t242.5 240.5t89.5 331v780h120v120zM240 -8v120h1568v-120h-1568z" />
    <glyph glyph-name="uE66D" unicode="&#xe66d;" 
d="M2048 1560v-1444h-240v-4q0 -99 -70.5 -169.5t-169.5 -70.5q-102 0 -173 70.5t-71 169.5v4h-600v-4q0 -99 -71 -169.5t-173 -70.5q-99 0 -169.5 70.5t-70.5 169.5v4h-240v600h232l144 480h348v364h1324zM468 1076l-108 -360h364v360h-256zM480 -8q51 0 87.5 36t36.5 84
q0 51 -36.5 85.5t-87.5 34.5q-49 0 -84.5 -35t-35.5 -85q0 -48 36 -84t84 -36zM1568 -8q48 0 84 36t36 84q0 50 -35.5 85t-84.5 35q-51 0 -87.5 -34.5t-36.5 -85.5q0 -48 36.5 -84t87.5 -36zM1928 236v1204h-1084v-844h-724v-360h156q33 54 87 85t117 31q65 0 120 -31
t88 -85h672q33 54 88 85t120 31q63 0 117 -31t87 -85h156z" />
    <glyph glyph-name="uE66E" unicode="&#xe66e;" 
d="M1084 1676q174 -12 330.5 -88t269 -195.5t178.5 -280.5t66 -336q0 -184 -71.5 -351.5t-192.5 -288.5t-288.5 -192.5t-351.5 -71.5t-351.5 71.5t-288.5 192.5t-192.5 288.5t-71.5 351.5q0 175 66 336t178.5 280.5t269 195.5t330.5 88v124h-180v120h480v-120h-180v-124z
M1024 -8q159 0 304 62t250.5 167.5t167.5 250.5t62 304t-62 304t-167.5 250.5t-250.5 167.5t-304 62t-304 -62t-250.5 -167.5t-167.5 -250.5t-62 -304t62 -304t167.5 -250.5t250.5 -167.5t304 -62zM1084 836v360h-120v-480h604v120h-484z" />
    <glyph glyph-name="uE66F" unicode="&#xe66f;" 
d="M1144 1800h424v-1808h-424v60q0 51 -34.5 85.5t-85.5 34.5t-85.5 -34.5t-34.5 -85.5v-60h-424v1808h424v-60q0 -51 34.5 -85.5t85.5 -34.5t85.5 34.5t34.5 85.5v60zM792 1680h-188v-724h840v724h-188q-18 -78 -83 -129t-149 -51t-149 51t-83 129zM1256 112h188v724h-840
v-724h188q18 78 83 129t149 51t149 -51t83 -129z" />
    <glyph glyph-name="uE670" unicode="&#xe670;" 
d="M1852 748q34 25 55 64.5t21 83.5q0 75 -54.5 127.5t-129.5 52.5h-464l48 256q10 51 14.5 87t-1 84t-25.5 81q-21 39 -60 61.5t-84 22.5q-102 0 -172 -112l-372 -600h-276q-24 0 -42 -18t-18 -42q0 -27 18 -45.5t42 -18.5h312q35 0 48 32l392 628q31 56 68 56
q14 0 25.5 -7t14.5 -17q28 -40 -4 -168l-60 -328q-6 -28 12 -52q20 -20 44 -20h540q27 0 45.5 -18t18.5 -42q0 -26 -19.5 -45t-44.5 -19h-76h-4h-120q-25 0 -42.5 -17t-17.5 -43q0 -24 18 -42t42 -18h132h20q39 0 45.5 -7.5t6.5 -52.5q0 -24 -14 -42t-42 -18h-172
q-25 0 -42.5 -17t-17.5 -43q0 -24 18 -42t42 -18h92q84 0 84 -60q0 -27 -18.5 -43.5t-45.5 -16.5h-152q-25 0 -42.5 -17t-17.5 -43q0 -24 18 -42t42 -18h12q60 0 84.5 -5t32 -17t7.5 -42q0 -26 -12 -44q-12 -12 -52 -12h-680q-7 0 -14.5 1t-13 2t-13 4t-12 4.5t-13 6
t-11.5 6.5l-12 8t-11 7.5t-12.5 8.5t-11.5 8q-28 22 -43.5 33t-44 23t-56.5 12h-252q-24 0 -42 -18t-18 -42q0 -26 17.5 -43t42.5 -17h252q5 0 10.5 -2t10.5 -4t12.5 -7t11.5 -7.5t13.5 -9.5t13.5 -10q103 -84 196 -84h680q86 0 140 48q48 48 48 132q-7 58 -16 84
q42 21 67 63t25 93q0 50 -24 92q76 51 76 148q0 48 -16 96z" />
    <glyph glyph-name="uE671" unicode="&#xe671;" 
d="M1756 776q0 24 -18 42t-42 18h-312q-31 0 -52 -28l-388 -632q-32 -52 -68 -52q-14 0 -25.5 6.5t-14.5 13.5q-27 43 4 168l60 332q7 29 -12 48q-15 20 -48 20h-536q-27 0 -45.5 18.5t-18.5 45.5q0 24 18.5 42t45.5 18h76h4h120q24 0 42 18t18 42t-18 42t-42 18h-120
q-29 6 -56.5 27.5t-27.5 36.5q0 23 14 39.5t42 16.5h172q24 0 42 18t18 42q0 26 -17.5 43t-42.5 17h-92q-84 0 -84 64q0 24 18.5 40t45.5 16h152q24 0 42 18t18 42t-18 42t-42 18h-16q-42 0 -69 6.5t-36.5 18.5t-12 19.5t-2.5 19.5q0 33 12 46.5t52 13.5h680q23 0 46 -9.5
t38 -20t40 -30.5q80 -64 144 -64h252q25 0 42.5 17t17.5 43q0 24 -18 42t-42 18h-252q-5 0 -10.5 2t-10.5 4t-12.5 7t-11.5 7.5t-13.5 9.5t-13.5 10q-103 84 -196 84h-680q-87 0 -137.5 -48t-50.5 -132q0 -44 20 -84q-43 -21 -69.5 -63.5t-26.5 -92.5t24 -92
q-36 -24 -56 -63.5t-20 -84.5q0 -50 32 -88q-42 -24 -67 -66t-25 -90q0 -75 54.5 -129.5t129.5 -54.5h464l-48 -256q-36 -173 12 -252q21 -36 60 -58t84 -22q105 0 172 112l372 600h276q24 0 42 18t18 42z" />
    <glyph glyph-name="uE672" unicode="&#xe672;" 
d="M1688 1680h-1328v-364h120v244h484v-1448h-200v-120h520v120h-200v1448h484v-244h120v364z" />
    <glyph glyph-name="uE673" unicode="&#xe673;" 
d="M2048 -8h-2048v-120h2048v120zM628 960l-456 -412l-80 88l528 476l496 -356l612 684h-288v120h488v-488h-120v276l-676 -752z" />
    <glyph glyph-name="uE674" unicode="&#xe674;" 
d="M624 860l496 356l612 -680h-288v-120h488v484h-120v-276l-676 756l-504 -364l-456 408l-80 -88zM0 -8h2048v-120h-2048v120z" />
    <glyph glyph-name="uE675" unicode="&#xe675;" 
d="M1284 336l-200 -200v456h-120v-456l-200 200l-84 -84l344 -344l344 344zM964 1656l-200 -200l-84 84l344 344l344 -344l-84 -84l-200 200v-456h-120v456zM0 956h2048v-120h-2048v120z" />
    <glyph glyph-name="uE676" unicode="&#xe676;" 
d="M264 956l200 200l-84 84l-344 -344l344 -344l84 84l-200 200h456v120h-456zM1668 1240l344 -344l-344 -344l-84 84l200 200h-456v120h456l-200 200zM964 -128v2048h120v-2048h-120z" />
    <glyph glyph-name="uE677" unicode="&#xe677;" 
d="M724 1208h-724v-244h120v120h240v-964h-120v-120h364v120h-124v964h244v-120h120v244h-120zM1928 1680h120v-312h-120v192h-484v-1448h124v-120h-364v120h120v1448h-480v-192h-120v312h1204z" />
    <glyph glyph-name="uE678" unicode="&#xe678;" 
d="M1024 1316q174 0 297 -123t123 -297t-123 -297t-297 -123t-297 123t-123 297t123 297t297 123zM1024 596q126 0 213 87t87 213t-87 213t-213 87t-213 -87t-87 -213t87 -213t213 -87zM1084 1440v360h-120v-360h120zM964 352v-360h120v360h-120zM1928 956h-360v-120h360
v120zM480 836v120h-360v-120h360zM1448 1236l256 256l-84 84l-256 -256zM600 556l-256 -256l84 -84l256 256zM1448 556l-84 -84l256 -256l84 84zM600 1236l84 84l-256 256l-84 -84z" />
    <glyph glyph-name="uE679" unicode="&#xe679;" 
d="M1008 1480l-88 -84l440 -440h-1360v-120h1360l-440 -440l88 -84l584 584zM1928 1920h120v-2048h-120v2048z" />
    <glyph glyph-name="uE67A" unicode="&#xe67a;" 
d="M2048 836v120h-1360l440 440l-88 84l-584 -584l584 -584l88 84l-440 440h1360zM0 -128v2048h120v-2048h-120z" />
    <glyph glyph-name="uE67B" unicode="&#xe67b;" 
d="M1808 1796h120v-820q0 -107 -29.5 -209t-77.5 -183t-115.5 -156.5t-135.5 -131.5t-145.5 -106.5t-138 -82.5t-120.5 -59t-85.5 -37t-40.5 -15l-20 -8l-20 8q-13 4 -40 15t-85 38t-119.5 60.5t-137 84t-143.5 107t-134.5 131.5t-114 155t-77 180t-29.5 205v824h120
q0 -147 107 -253.5t257 -106.5q147 0 253.5 106.5t106.5 253.5h120q0 -147 106.5 -253.5t253.5 -106.5q150 0 257 106.5t107 253.5zM240 972q0 -95 30.5 -186.5t77.5 -163.5t114.5 -141.5t132 -119.5t139.5 -96.5t126.5 -73.5t103.5 -51v1340q-68 -77 -161 -120.5
t-199 -43.5t-201.5 44t-162.5 120v-508zM1808 976v504q-67 -76 -162.5 -120t-201.5 -44t-199 43.5t-161 120.5v-1336q52 22 105 49t127 72.5t139 95.5t131.5 119t114 142t77.5 165.5t30 188.5z" />
    <glyph glyph-name="uE67C" unicode="&#xe67c;" 
d="M120 1920h1808v-2048h-1808v2048zM1808 -8v1808h-240v-132q52 -18 86 -65t34 -103q0 -75 -54.5 -129.5t-129.5 -54.5q-72 0 -126 54.5t-54 129.5q0 56 34 103t86 65v132h-360v-132q54 -18 87 -64.5t33 -103.5q0 -75 -52.5 -129.5t-127.5 -54.5t-127.5 54.5t-52.5 129.5
q0 57 33 103.5t87 64.5v132h-360v-132q52 -18 86 -65t34 -103q0 -75 -54 -129.5t-126 -54.5q-75 0 -129.5 54.5t-54.5 129.5q0 56 34 103t86 65v132h-240v-1808h1568zM604 1500q0 24 -18 42t-42 18q-27 0 -45.5 -18t-18.5 -42q0 -27 18.5 -43.5t45.5 -16.5q25 0 42.5 17
t17.5 43zM1084 1500q0 24 -18 42t-42 18t-42 -18t-18 -42q0 -26 17.5 -43t42.5 -17t42.5 17t17.5 43zM1568 1500q0 24 -18.5 42t-45.5 18q-24 0 -42 -18t-18 -42q0 -26 17.5 -43t42.5 -17q27 0 45.5 16.5t18.5 43.5z" />
    <glyph glyph-name="uE67D" unicode="&#xe67d;" 
d="M2048 1500q0 -20 -8 -60h8v-1148q0 -98 -89.5 -179.5t-237 -133t-328 -79.5t-369.5 -28t-369.5 28t-328 79.5t-237 133t-89.5 179.5v1148h8q-8 40 -8 60q0 98 89.5 179.5t237 133t328 79.5t369.5 28t369.5 -28t328 -79.5t237 -133t89.5 -179.5zM1024 1800
q-150 0 -291.5 -17.5t-250.5 -48t-191.5 -68.5t-126.5 -81t-44 -85q0 -36 35 -75.5t97 -72.5q130 -73 335 -114.5t437 -41.5t437 41.5t335 114.5q62 33 97 72.5t35 75.5q0 42 -44 85t-126.5 81t-191.5 68.5t-250.5 48t-291.5 17.5zM1024 -8q150 0 291.5 17.5t250.5 48
t191.5 68.5t126.5 81t44 85v200q-47 -38 -72 -52v0q-126 -69 -311 -112t-397 -52q-20 0 -62 -2t-62 -2q-248 0 -469 45t-363 123q-24 14 -72 52v-200q0 -42 44 -85t126.5 -81t191.5 -68.5t250.5 -48t291.5 -17.5zM1796 548q132 75 132 148v196q-30 -24 -72 -48
q-142 -78 -363 -123t-469 -45t-469 45t-363 123q-42 24 -72 48v-196q0 -73 132 -148q111 -63 283 -103t373 -49q20 0 58 -2t58 -2q232 0 437 41.5t335 114.5zM1796 948q132 75 132 148v196q-30 -24 -72 -48q-142 -78 -363 -123t-469 -45t-469 45t-363 123q-42 24 -72 48
v-196q0 -73 132 -148q129 -72 333 -112t439 -40t439 40t333 112z" />
    <glyph glyph-name="uE67E" unicode="&#xe67e;" 
d="M880 1092v-8q-8 -136 -36.5 -255t-68.5 -205t-90.5 -158.5t-103 -119.5t-106.5 -84t-99 -57t-84 -33t-57.5 -16.5t-22.5 -3.5l-16 120q61 15 79 22q201 71 327 263q54 82 90 183q-111 -72 -236 -72q-176 0 -300 124.5t-124 299.5q0 177 123.5 302.5t300.5 125.5
q174 0 299 -125.5t125 -302.5zM456 788q126 0 215 89t89 215t-89 215t-215 89t-215 -89t-89 -215t89 -215t215 -89zM2016 1084q-8 -136 -36.5 -255t-68.5 -205t-90.5 -158.5t-103 -119.5t-106.5 -84t-99 -57t-84 -33t-57.5 -16.5t-22.5 -3.5l-16 120q61 15 72 19
q201 67 328 252q61 87 100 197q-111 -72 -240 -72q-176 0 -300 124.5t-124 299.5q0 177 123.5 302.5t300.5 125.5t300.5 -125.5t123.5 -302.5v-8zM1592 788q126 0 215 89t89 215t-89 215t-215 89t-215 -89t-89 -215t89 -215t215 -89z" />
    <glyph glyph-name="uE67F" unicode="&#xe67f;" 
d="M1588 1004q174 0 299 -125.5t125 -302.5q0 -174 -125 -299t-299 -125q-177 0 -302.5 125t-125.5 299q0 2 2 6t2 6h-4q8 129 34 242.5t62.5 197t84.5 155t96.5 119.5t101.5 87t97.5 61t86.5 38t66 22t37 9q3 0 4 1h2l12 -120q-61 -15 -80 -22q-201 -72 -326 -265
q-54 -84 -90 -185q108 76 240 76zM1588 272q126 0 215 89t89 215t-89 217t-215 91t-217 -91t-91 -217t91 -215t217 -89zM448 1004q177 0 302.5 -125.5t125.5 -302.5q0 -174 -125.5 -299t-302.5 -125q-174 0 -299 125t-125 299v12q8 129 34 242.5t62.5 197t84.5 155
t96.5 119.5t101.5 87t97.5 61t86.5 38t66 22t37 9q3 0 4 1h2l12 -120q-61 -15 -80 -22q-201 -72 -326 -265q-54 -84 -90 -185q108 76 236 76zM448 272q126 0 217 89t91 215t-91 217t-217 91t-215 -91t-89 -217t89 -215t215 -89z" />
    <glyph glyph-name="uE680" unicode="&#xe680;" 
d="M1728 956h320v-120h-400l-136 316l-432 -1232l-476 1552l-200 -636h-404v120h316l288 928l484 -1580l412 1180z" />
    <glyph glyph-name="uE681" unicode="&#xe681;" 
d="M2048 1196v-964h-360v-372h-1328v372h-360v964h360v724h784l540 -504v-220h364zM1204 1700v-260h280zM480 1800v-604h1084v120h-480v484h-604zM1568 -20v604h-1088v-604h1088zM1928 352v724h-1808v-724h240v352h1328v-352h240zM1324 352v124h-720v-124h720zM1084 112v120
h-480v-120h480zM360 836v120h-120v-120h120zM604 836v120h-124v-120h124z" />
    <glyph glyph-name="uE682" unicode="&#xe682;" 
d="M1928 776q0 207 -91.5 393t-253.5 315t-363 172l-28 -116q267 -60 441.5 -275.5t174.5 -488.5q0 -159 -62 -304t-167.5 -250.5t-250.5 -167.5t-304 -62t-304 62t-250.5 167.5t-167.5 250.5t-62 304q0 135 46.5 262t127.5 228t195.5 173.5t246.5 100.5l-28 120
q-202 -45 -363.5 -174.5t-253 -316t-91.5 -393.5q0 -184 71.5 -351.5t192.5 -288.5t288.5 -192.5t351.5 -71.5t351.5 71.5t288.5 192.5t192.5 288.5t71.5 351.5zM1084 1920v-1204h-120v1204h120z" />
    <glyph glyph-name="uE683" unicode="&#xe683;" 
d="M360 1440h1328v-604q0 -163 -89.5 -302.5t-242.5 -220.5t-332 -81t-332 81t-242.5 220.5t-89.5 302.5v604zM1568 836v480h-1088v-480q0 -132 73 -243.5t198 -176t273 -64.5t273 64.5t198 176t73 243.5zM844 1560v360h-120v-360h120zM1324 1560v360h-120v-360h120z
M964 232v-360h120v360h-120zM1324 956v120h-600v-120h600zM1324 716v120h-600v-120h600z" />
    <glyph glyph-name="uE684" unicode="&#xe684;" 
d="M1804 844q-14 -203 -121.5 -371t-281.5 -264.5t-377 -96.5q-159 0 -304 62t-250.5 167.5t-167.5 250.5t-62 304q0 150 56.5 289.5t153.5 243.5t231 170.5t283 76.5l-8 120q-173 -12 -328 -88.5t-266 -196t-176.5 -280.5t-65.5 -335q0 -184 71.5 -351.5t192.5 -288.5
t288.5 -192.5t351.5 -71.5q232 0 433.5 112t326 306t140.5 426zM2048 1016q0 183 -71.5 350t-192 288.5t-287 193.5t-349.5 72h-60v-964h900h60v60zM1924 1076h-716v720q189 -14 349 -113t257.5 -259.5t109.5 -347.5z" />
    <glyph glyph-name="uE685" unicode="&#xe685;" 
d="M1928 1796v-120h-480v-1684h-120v1684h-244v-1684h-120v852h-364q-128 0 -237.5 63.5t-174 173t-64.5 239.5t64.5 239.5t174 173t237.5 63.5h1328zM964 964v712h-364q-147 0 -251.5 -104.5t-104.5 -251.5t104.5 -251.5t251.5 -104.5h364z" />
    <glyph glyph-name="uE686" unicode="&#xe686;" 
d="M0 1920h2048v-2048h-2048v2048zM1928 -8v1808h-1808v-1808h1808zM480 688q-66 18 -109 75t-43 129t43 129t109 75v344h124v-344q66 -18 109 -75t43 -129t-43 -129t-109 -75v-336h-124v336zM544 988q-39 0 -67.5 -28.5t-28.5 -67.5t28.5 -65.5t67.5 -26.5t65.5 26.5
t26.5 65.5t-26.5 67.5t-65.5 28.5zM964 944q-67 18 -111.5 75.5t-44.5 128.5t44.5 128.5t111.5 75.5v88h120v-88q67 -18 111.5 -75.5t44.5 -128.5t-44.5 -128.5t-111.5 -75.5v-592h-120v592zM1024 1244q-39 0 -67.5 -28.5t-28.5 -67.5t28.5 -65.5t67.5 -26.5t67.5 26.5
t28.5 65.5t-28.5 67.5t-67.5 28.5zM1504 304q-87 0 -149.5 63t-62.5 153q0 71 42.5 127t109.5 77v716h124v-716q67 -21 109.5 -77t42.5 -127q0 -90 -63 -153t-153 -63zM1504 612q-39 0 -65.5 -26.5t-26.5 -65.5t28 -67.5t64 -28.5q39 0 67.5 28.5t28.5 67.5t-28.5 65.5
t-67.5 26.5z" />
    <glyph glyph-name="uE687" unicode="&#xe687;" 
d="M1028 1924l1020 -388v-1288l-1024 -384l-1024 384v1288zM1816 1496l-792 300l-308 -120l788 -296zM1024 1196l312 120l-792 296l-312 -116zM120 1408v-1076l844 -316v1076zM1084 16l844 316v1076l-844 -316v-1076z" />
    <glyph glyph-name="uE688" unicode="&#xe688;" 
d="M1780 1384l-696 320v-1244q0 -4 2 -10t2 -10q0 -144 -104 -248t-248 -104q-146 0 -249 103.5t-103 248.5t103 248.5t249 103.5q126 0 228 -88v1188l864 -400zM736 208q96 0 162 68t66 164t-66 164t-162 68t-164 -68t-68 -164t68 -164t164 -68z" />
    <glyph glyph-name="uE689" unicode="&#xe689;" 
d="M724 1888l1324 -260v-1412q-3 -144 -105.5 -244t-246.5 -100q-145 0 -248.5 103t-103.5 249q0 144 104 248t248 104q127 0 232 -92v564l-1084 212v-736v-12v-12v0q-6 -142 -107.5 -239t-244.5 -97q-144 0 -246 102t-102 246q0 147 102 249.5t246 102.5q131 0 232 -88
v1112zM492 284q92 0 159 62.5t73 153.5v24q-6 93 -72.5 156.5t-159.5 63.5t-160.5 -68t-67.5 -164q0 -93 67.5 -160.5t160.5 -67.5zM844 1384l1084 -212v356l-1084 212v-356zM1696 -8q96 0 164 68t68 164t-68 162t-164 66t-162 -66t-66 -162t66 -164t162 -68z" />
    <glyph glyph-name="uE68A" unicode="&#xe68a;" 
d="M1024 1920q134 0 257 -52.5t212 -141t142 -212t53 -258.5v-720q0 -135 -53 -258.5t-142 -212t-212 -141t-257 -52.5t-257 52.5t-212 141t-142 212t-53 258.5v720q0 135 53 258.5t142 212t212 141t257 52.5zM1568 536v720q0 148 -73 273t-198 198t-273 73t-273 -73
t-198 -198t-73 -273v-720q0 -148 73 -273t198 -198t273 -73t273 73t198 198t73 273zM1024 1500q75 0 127.5 -54.5t52.5 -129.5v-240q0 -75 -52.5 -127.5t-127.5 -52.5t-127.5 52.5t-52.5 127.5v240q0 75 52.5 129.5t127.5 54.5zM1084 1076v240q0 26 -17.5 43t-42.5 17
t-42.5 -17t-17.5 -43v-240q0 -24 18 -42t42 -18t42 18t18 42z" />
    <glyph glyph-name="uE68B" unicode="&#xe68b;" 
d="M1024 1920q134 0 257 -52.5t212 -141t142 -212t53 -258.5v-720q0 -135 -53 -258.5t-142 -212t-212 -141t-257 -52.5t-257 52.5t-212 141t-142 212t-53 258.5v720q0 135 53 258.5t142 212t212 141t257 52.5zM1568 1256q0 209 -139.5 362t-344.5 174v-596h484v60zM964 1792
q-205 -21 -344.5 -174t-139.5 -362v-60h484v596zM1024 -8q148 0 273 73t198 198t73 273v540h-1088v-540q0 -148 73 -273t198 -198t273 -73z" />
    <glyph glyph-name="uE68C" unicode="&#xe68c;" 
d="M1292 768q72 -60 112 -141.5t40 -170.5q0 -152 -103 -263.5t-257 -132.5v-188h-120v188q-154 21 -257 132.5t-103 263.5h120q0 -101 68.5 -179.5t171.5 -96.5v688l-220 168v0h-4v4q-66 57 -101 134t-35 162q0 152 103 263.5t257 132.5v188h120v-188q154 -21 257 -132.5
t103 -263.5l-60 -8l-60 8q0 101 -68.5 179.5t-171.5 96.5v-688l200 -152q2 0 4 -2t4 -2v0zM820 1128l144 -108v592q-103 -18 -171.5 -96.5t-68.5 -179.5q0 -60 25.5 -114.5t70.5 -93.5zM1084 180q103 18 171.5 96.5t68.5 179.5q0 127 -108 216l-132 100v-592z" />
    <glyph glyph-name="uE68D" unicode="&#xe68d;" 
d="M1024 476q-148 0 -273 72t-198 196.5t-73 271.5v360q0 209 139.5 362t344.5 174v8h120v-8q205 -21 344.5 -174t139.5 -362v-360q0 -147 -73 -271.5t-198 -196.5t-273 -72zM724 1672q-120 -120 -120 -296v-60h840v60q0 176 -120 296v-232h-120v316q-54 30 -120 36v-352
h-120v352q-66 -6 -120 -36v-316h-120v232zM604 1196v-180q0 -174 123 -297t297 -123t297 123t123 297v180h-840zM1808 1076h-120v-392q0 -135 -125 -233.5t-299 -98.5h-480q-174 0 -299 98.5t-125 233.5v392h-120v-392q0 -122 73 -226t198.5 -165t272.5 -61h180v-360h120
v360h180q147 0 272.5 61t198.5 165t73 226v392z" />
    <glyph glyph-name="uE68E" unicode="&#xe68e;" 
d="M1928 1560h-1808v-244h1808v244zM120 716v240h1808v-240h-1808zM120 112v240h1808v-240h-1808z" />
    <glyph glyph-name="uE68F" unicode="&#xe68f;" 
d="M1928 1680h-1324v-240h1324v240zM604 836v240h1324v-240h-1324zM604 232v244h1324v-244h-1324zM240 1680q50 0 85 -35.5t35 -84.5q0 -51 -34.5 -85.5t-85.5 -34.5q-49 0 -84.5 35t-35.5 85q0 48 36 84t84 36zM240 1076q51 0 85.5 -34.5t34.5 -85.5t-34.5 -85.5
t-85.5 -34.5q-49 0 -84.5 35t-35.5 85t35.5 85t84.5 35zM240 476q51 0 85.5 -36.5t34.5 -87.5q0 -49 -35 -84.5t-85 -35.5q-48 0 -84 36t-36 84q0 51 36 87.5t84 36.5z" />
    <glyph glyph-name="uE690" unicode="&#xe690;" 
d="M1264 1384l664 196v-1332l-656 -192l-628 176h-644v1328l676 -4zM724 1416v-1080l480 -136v1076zM120 1440v-1088h484v1088h-484zM1808 340v1080l-484 -144v-1080z" />
    <glyph glyph-name="uE691" unicode="&#xe691;" 
d="M1808 1440h120v-1312l-656 -192l-628 176h-644v1328h724v-4l124 -28q12 165 131.5 278.5t284.5 113.5q167 0 287.5 -112.5t132.5 -275.5l120 24l4 -8v12zM1264 1680q-123 0 -211.5 -89t-88.5 -215q0 -233 300 -624q45 57 89.5 120.5t97 152.5t85 182t32.5 169
q0 126 -89 215t-215 89zM724 1312v-1096l480 -136v552q-300 380 -352 652zM120 1316v-1084h484v1084h-484zM1324 76l484 144v1092l-132 -28q-17 -95 -64.5 -202.5t-108 -200.5t-102 -150t-77.5 -99v-556zM1428 1368q0 -69 -47.5 -116.5t-116.5 -47.5q-67 0 -115.5 48
t-48.5 116t48.5 116t115.5 48q69 0 116.5 -47.5t47.5 -116.5zM1220 1368q0 -18 13 -31t31 -13t31 13t13 31t-13 31t-31 13t-31 -13t-13 -31z" />
    <glyph glyph-name="uE692" unicode="&#xe692;" 
d="M120 836q0 130 62 240.5t168 175t230 64.5h508l-196 -196l84 -84l344 340l-344 344l-84 -84l196 -196h-508q-118 0 -225.5 -48t-185 -129t-123.5 -193t-46 -234t46 -234t123.5 -193t185 -129t225.5 -48v120q-124 0 -230 65.5t-168 177t-62 241.5zM1468 1440
q118 0 225.5 -48t185 -129t123.5 -193t46 -234t-46 -234t-123.5 -193t-185 -129t-225.5 -48h-508l196 -196l-84 -88l-344 344l344 344l84 -84l-196 -200h508q124 0 230 65.5t168 177t62 241.5t-62 240.5t-168 175t-230 64.5v124z" />
    <glyph glyph-name="uE693" unicode="&#xe693;" 
d="M1024 1860q134 0 257 -52.5t212 -141t142 -212t53 -258.5q0 -107 -33.5 -232.5t-83.5 -237t-119 -230.5t-127.5 -205.5t-122 -170t-90.5 -116.5t-44 -52l-44 -52l-44 52q-17 19 -44 52t-90.5 116.5t-122 170t-127.5 205.5t-119 230.5t-83.5 237t-33.5 232.5
q0 135 53 258.5t142 212t212 141t257 52.5zM1024 88q54 67 111.5 144t139.5 204.5t143 247t105.5 259.5t44.5 253q0 148 -73 273t-198 198t-273 73t-273 -73t-198 -198t-73 -273q0 -113 44.5 -253t105.5 -259.5t143 -247t139.5 -204.5t111.5 -144zM1024 1540q150 0 255 -105
t105 -255t-105 -255t-255 -105t-255 105t-105 255t105 255t255 105zM1024 940q99 0 169.5 70.5t70.5 169.5t-70.5 169.5t-169.5 70.5t-169.5 -70.5t-70.5 -169.5t70.5 -169.5t169.5 -70.5z" />
    <glyph glyph-name="uE694" unicode="&#xe694;" 
d="M2048 1440h-1444v-124h1444v124zM360 1376q0 75 -52.5 129.5t-127.5 54.5t-127.5 -54.5t-52.5 -129.5q0 -73 53 -126.5t127 -53.5t127 53.5t53 126.5zM240 1376q0 -24 -18 -42t-42 -18t-42 18t-18 42q0 27 18 45.5t42 18.5t42 -18.5t18 -45.5zM604 836v120h1444v-120
h-1444zM360 896q0 75 -52.5 127.5t-127.5 52.5t-127.5 -52.5t-52.5 -127.5t52.5 -127.5t127.5 -52.5t127.5 52.5t52.5 127.5zM240 896q0 -24 -18 -42t-42 -18t-42 18t-18 42t18 42t42 18t42 -18t18 -42zM604 352v124h1444v-124h-1444zM360 416q0 73 -53 126.5t-127 53.5
t-127 -53.5t-53 -126.5q0 -75 52.5 -129.5t127.5 -54.5t127.5 54.5t52.5 129.5zM240 416q0 -27 -18 -45.5t-42 -18.5t-42 18.5t-18 45.5q0 24 18 42t42 18t42 -18t18 -42z" />
    <glyph glyph-name="uE695" unicode="&#xe695;" 
d="M1024 1920q179 0 332 -94.5t242.5 -256.5t89.5 -353q0 -61 -8.5 -119t-17.5 -100t-31.5 -93.5t-34.5 -77t-43.5 -73.5t-41 -61t-43.5 -60q-44 -59 -58.5 -80.5t-41 -67t-35.5 -84t-9 -84.5v-256q0 -78 -52.5 -133t-127.5 -55h-240q-75 0 -127.5 55t-52.5 133v252
q0 60 -23 121t-47 97.5t-74 105.5q-42 57 -64 88.5t-57 93t-53 113.5t-32 127.5t-14 157.5q0 191 89.5 353t242.5 256.5t332 94.5zM1144 -8q24 0 42 20.5t18 47.5v196h-360v-196q0 -27 18 -47.5t42 -20.5h240zM1368 704q47 61 75 102t61 106t48.5 140t15.5 164
q0 159 -73 293.5t-198 212.5t-273 78t-273 -78t-198 -212.5t-73 -293.5q0 -70 12 -135t28 -111t46.5 -99.5t51 -83t58.5 -79.5q46 -61 72 -101t54.5 -103.5t37.5 -127.5h368q9 63 38.5 128.5t50.5 97t71 102.5z" />
    <glyph glyph-name="uE696" unicode="&#xe696;" 
d="M1432 1676h136v120h-364v-120h96l-684 -1564h-136v-120h364v120h-96z" />
    <glyph glyph-name="uE697" unicode="&#xe697;" 
d="M1300 200h-216v1016h-332v-120h212v-896h-216v-120h552v120zM964 1432q-78 0 -133 54.5t-55 129.5q0 78 55 133t133 55q75 0 129.5 -55t54.5 -133q0 -75 -54.5 -129.5t-129.5 -54.5z" />
    <glyph glyph-name="uE698" unicode="&#xe698;" 
d="M2048 956q0 130 -64.5 241.5t-175 177t-240.5 65.5q-105 0 -200 -43t-164 -121l-112 -144l92 -76l116 144q104 116 268 116q148 0 254 -105.5t106 -254.5t-106 -254.5t-254 -105.5q-84 0 -156.5 34.5t-123.5 97.5l-444 548l-8 8v-4q-70 76 -162.5 118t-193.5 42
q-130 0 -240.5 -65.5t-175 -177t-64.5 -241.5t64.5 -240.5t175 -175t240.5 -64.5q111 0 209 46t167 130h4l96 124l-92 76l-100 -124v4q-51 -65 -125 -100.5t-159 -35.5q-148 0 -254 105.5t-106 254.5t106 254.5t254 105.5q78 0 149.5 -31.5t122.5 -88.5l436 -540l4 -4l4 -4
q70 -82 166 -127t206 -45q130 0 240.5 64.5t175 175t64.5 240.5z" />
    <glyph glyph-name="uE699" unicode="&#xe699;" 
d="M0 1560h2048v-1448h-2048v1448zM1928 232v1208h-1808v-1208h1808zM308 292q3 93 102 165.5t246 90.5l52 4v204l-28 20q-30 20 -52 96v28l-16 4l-8 68q-4 20 -4 52v24q0 64 4 68t16 4q48 4 76 60q4 7 5 8t6 4t12.5 3.5t20.5 0.5q112 0 140 -48l-4 -4q-23 -70 -16 -124v-32
l-12 -76l-16 -44q-20 -64 -48 -92l-24 -16v-208l52 -4q146 -18 241.5 -90.5t98.5 -165.5l120 4q-3 128 -111.5 227.5t-280.5 132.5v48q24 28 60 100q36 29 52 72q23 70 -12 120v36q-4 35 12 68q1 3 4 16t4 20.5t0.5 20t-4.5 23.5q-24 69 -93 104t-171 32q-57 0 -87.5 -20
t-52.5 -56q-24 -4 -42.5 -14.5t-30.5 -20.5t-20 -29.5t-11.5 -30.5t-5.5 -35t-2 -31v-31v-24v-24q-39 -53 -8 -128q17 -39 48 -64q35 -79 68 -112v-36q-174 -33 -285.5 -134t-114.5 -230zM1808 956v120h-604v-120h604zM1688 716v120h-484v-120h484z" />
    <glyph glyph-name="uE69A" unicode="&#xe69a;" 
d="M1084 1440v-452h136v-1116h-392v1116h136v452h-484v480h848l432 -480h-676zM604 1800v-240h888l-220 240h-668zM1100 -8v876h-152v-876h152z" />
    <glyph glyph-name="uE69B" unicode="&#xe69b;" 
d="M1688 -8v1084h120v-1204h-1568v1204h120v-1084h364v724h600v-724h364zM844 -8h360v604h-360v-604zM2024 1140l-1000 736l-1000 -736l72 -96l928 680l928 -680z" />
    <glyph glyph-name="uE69C" unicode="&#xe69c;" 
d="M1244 132q0 81 -58 138.5t-142 57.5q-81 0 -138.5 -57.5t-57.5 -138.5t57.5 -138.5t138.5 -57.5q84 0 142 57.5t58 138.5zM1404 1636q62 -79 87.5 -170.5t12.5 -153.5q-16 -66 -42 -121.5t-64.5 -102.5t-68 -76.5t-77.5 -71.5q-42 -39 -61 -57.5t-49 -54.5t-43 -64.5
t-24 -71.5t-11 -92h-120q0 54 8 101.5t27 88t36 70t49 64t51.5 53t56.5 51.5q46 42 69.5 65.5t57.5 64.5t55 85t34 97q7 33 -11.5 98t-64.5 122q-97 124 -264 124q-78 0 -141.5 -18.5t-103 -46.5t-69 -65.5t-44 -70.5t-23 -67t-10 -49t-1.5 -23l-120 4q0 8 2 27t13 64.5
t30 90t58 96t90.5 89.5t134.5 63.5t184 25.5q223 0 356 -168z" />
    <glyph glyph-name="uE69D" unicode="&#xe69d;" 
d="M1924 944q55 -18 89.5 -63.5t34.5 -104.5v-484q0 -73 -53 -126.5t-127 -53.5h-180v120h-120v604h120v120h116q-14 233 -120.5 426.5t-281 305.5t-378.5 112t-378.5 -112t-281 -305.5t-120.5 -426.5h116v-120h120v-604h-120v-120h-180q-74 0 -127 53.5t-53 126.5v484
q0 59 34.5 104.5t89.5 63.5q7 201 81.5 381.5t194 311t283 207t341.5 76.5t341.5 -76.5t283 -207t194 -311t81.5 -381.5zM240 232v604h-60q-24 0 -42 -18t-18 -42v-484q0 -24 18 -42t42 -18h60zM1928 292v484q0 24 -18 42t-42 18h-60v-604h60q24 0 42 18t18 42z" />
    <glyph glyph-name="uE69E" unicode="&#xe69e;" 
d="M1628 416q72 0 126 -54.5t54 -129.5q0 -74 -53.5 -127t-126.5 -53q-75 0 -129.5 52.5t-54.5 127.5t54.5 129.5t129.5 54.5zM1628 172q24 0 42 18t18 42q0 26 -17.5 43t-42.5 17q-27 0 -43.5 -16.5t-16.5 -43.5q0 -25 17 -42.5t43 -17.5zM2048 1540v-768h-128l128 -144
v-756h-2048v760l112 140h-112v776l352 372h1344zM404 1800l-228 -240h1692l-224 240h-1240zM120 -8h1808v484h-1808v-484zM1916 596l-152 176h-1496l-144 -176h1792zM120 892h1808v548h-1808v-548zM1628 1316q73 0 126.5 -53t53.5 -127t-53.5 -127t-126.5 -53
q-75 0 -129.5 52.5t-54.5 127.5t54.5 127.5t129.5 52.5zM1628 1076q24 0 42 18t18 42q0 26 -17.5 43t-42.5 17q-27 0 -43.5 -16.5t-16.5 -43.5q0 -25 17 -42.5t43 -17.5z" />
    <glyph glyph-name="uE69F" unicode="&#xe69f;" 
d="M1704 1560l344 -536v-792h-2048v800l344 528h1360zM412 1440l-240 -364h1700l-236 364h-1224zM120 352h1808v604h-1808v-604zM1628 836q73 0 126.5 -53t53.5 -127q0 -75 -54 -129.5t-126 -54.5q-75 0 -129.5 54.5t-54.5 129.5t54.5 127.5t129.5 52.5zM1628 596
q25 0 42.5 17t17.5 43q0 24 -18 42t-42 18q-26 0 -43 -17.5t-17 -42.5q0 -27 16.5 -43.5t43.5 -16.5z" />
    <glyph glyph-name="uE6A0" unicode="&#xe6a0;" 
d="M944 1244q-84 15 -169 37.5t-198 71t-185 107.5q-92 80 -92 192q0 118 92 192q87 75 212 75t212 -75q128 -107 204 -312q88 215 208 316q84 72 210 72t210 -72q92 -80 92 -196q0 -112 -92 -192q-70 -59 -183.5 -107.5t-197 -70.5t-167.5 -38v-24l-76 12h-4l-80 -12z
M1304 1756q-131 -117 -212 -392q127 25 262.5 72t217.5 116q48 42 48 100q0 62 -48 104q-57 44 -132 44q-79 0 -136 -44zM472 1756q-52 -46 -52 -104q0 -54 52 -100q142 -119 476 -184q-73 272 -212 388q-57 44 -132 44t-132 -44zM2048 1196v-480h-120v-844h-1808v844h-120
v480h2048zM840 1076l136 -764l156 144l200 -84l-128 704h-364zM120 1076v-240h640l-40 240h-600zM1808 -8v724h-416l96 -540l-332 140l-260 -244l-116 644h-540v-724h1568zM1928 836v240h-604l44 -240h560z" />
    <glyph glyph-name="uE6A1" unicode="&#xe6a1;" 
d="M1084 1440q214 -6 437.5 -50t375 -112.5t151.5 -137.5v-848q0 -75 -52.5 -127.5t-127.5 -52.5h-224l-228 472q-192 -32 -396 -32q-203 0 -384 32l-240 -472h-216q-75 0 -127.5 52.5t-52.5 127.5v848q0 69 151.5 137.5t375 112.5t437.5 50v360h120v-360zM1928 292v832
q-60 52 -307 120t-537 76v-4h-120v4q-290 -8 -537 -76t-307 -120v-832q0 -24 18 -42t42 -18h144l248 492l44 -12l11 -2q11 -2 30 -5.5t45 -8t61.5 -9t74 -8t86.5 -5.5t96 -2q103 0 207 10t157 20l52 10l48 8l236 -488h148q24 0 42 18t18 42zM604 1076v120h-124v-120h-120
v-124h120v-120h124v120h120v124h-120zM1504 832q-72 0 -126 54.5t-54 129.5q0 72 54 126t126 54q75 0 129.5 -54t54.5 -126q0 -75 -54.5 -129.5t-129.5 -54.5zM1504 1076q-24 0 -42 -18t-18 -42q0 -27 18 -45.5t42 -18.5q27 0 45.5 18.5t18.5 45.5q0 24 -18.5 42t-45.5 18z
" />
    <glyph glyph-name="uE6A2" unicode="&#xe6a2;" 
d="M64 1920h1920l-780 -1112v-936h-360v936zM1084 848l668 952h-1456l668 -952v-856h120v856z" />
    <glyph glyph-name="uE6A3" unicode="&#xe6a3;" 
d="M1504 1920l544 -504v-1184h-604v120h484v964h-484v484h-600v-124h-120v244h780zM1568 1700v-260h280zM0 1560h784l540 -504v-1184h-1324v1688zM844 1336v-260h280zM120 -8h1084v964h-480v484h-604v-1448z" />
    <glyph glyph-name="uE6A4" unicode="&#xe6a4;" 
d="M1164 1920l644 -640v-1408h-1568v2048h924zM1204 1712v-396h396zM360 -8h1328v1204h-604v604h-724v-1808z" />
    <glyph glyph-name="uE6A5" unicode="&#xe6a5;" 
d="M1620 1412q65 -36 85 -108.5t-17 -135.5l-688 -1176h-528l-380 220q-65 36 -85 108.5t17 135.5l724 1252q36 63 110 83.5t134 -15.5zM928 112l256 440l-724 420l-332 -576q-13 -21 -6 -44.5t30 -35.5l352 -204h424zM1580 1228q14 21 8 44.5t-28 35.5l-628 364
q-16 8 -28 8q-33 0 -52 -32l-332 -572l728 -420zM2048 112h-844v-120h844v120z" />
    <glyph glyph-name="uE6A6" unicode="&#xe6a6;" 
d="M240 1920h1568v-2048h-1568v2048zM564 1440h920l168 360h-1256zM488 1316l-128 272v-1492l120 136h484v1084h-476zM536 112l-104 -120h1184l-104 120h-976zM1568 232l120 -136v1496l-128 -276h-476v-1084h484z" />
    <glyph glyph-name="uE6A7" unicode="&#xe6a7;" 
d="M2048 -8h-2048v-120h2048v120zM1608 852l-584 -584l-584 584l84 88l440 -440v1420h120v-1420l440 440z" />
    <glyph glyph-name="uE6A8" unicode="&#xe6a8;" 
d="M2004 1268l-336 -432h-584v-964h-120v964h-844v844h844v240h120v-240h584zM1084 956h524l244 312l-244 292h-1368v-604h844z" />
    <glyph glyph-name="uE6A9" unicode="&#xe6a9;" 
d="M1084 1196v-240h724v-604h-724v-480h-120v480h-564l-236 312l236 292h564v240h-724v604h724v120h120v-120h564l236 -296l-236 -308h-564zM360 1680v-364h1228l144 188l-140 176h-1232zM1688 476v360h-1232l-140 -176l144 -184h1228z" />
    <glyph glyph-name="uE6AA" unicode="&#xe6aa;" 
d="M2048 536q0 208 -81.5 397.5t-218.5 326.5t-326.5 218.5t-397.5 81.5t-397.5 -81.5t-326.5 -218.5t-218.5 -326.5t-81.5 -397.5v-60h744v120h-620q18 305 220 532l96 -96l84 84l-92 96q225 200 532 224v-360h120v360q305 -24 536 -224l-100 -96l88 -84l96 96
q202 -227 220 -532h-620v-120h744v60zM1264 536q0 99 -70.5 169.5t-169.5 70.5q-6 0 -18 -2t-18 -2l-256 448l-104 -60l248 -436q-43 -34 -67.5 -83t-24.5 -105q0 -102 70.5 -173t169.5 -71t169.5 71t70.5 173zM1144 536q0 -51 -34.5 -85.5t-85.5 -34.5t-85.5 34.5
t-34.5 85.5q0 49 35 84.5t85 35.5t85 -35.5t35 -84.5z" />
    <glyph glyph-name="uE6AB" unicode="&#xe6ab;" 
d="M360 1560h1328v-1328h-1328v1328zM1568 352v1088h-1088v-1088h1088z" />
    <glyph glyph-name="uE6AC" unicode="&#xe6ac;" 
d="M1076 1092l96 -76l128 164q59 65 141.5 100.5t170.5 35.5h232l-200 -196l84 -84l344 340l-344 344l-84 -84l200 -196h-232q-114 0 -221.5 -48.5t-182.5 -135.5v-4zM704 632l112 140l96 -76l-116 -140q-79 -97 -188.5 -150.5t-231.5 -53.5h-376v124h376q96 0 182 40.5
t146 115.5zM1644 672l84 88l344 -344l-344 -344l-84 84l200 196h-232q-123 0 -234.5 54t-189.5 150l4 4l-504 616q-122 140 -312 140h-376v124h376q113 0 216.5 -47.5t179.5 -132.5l4 4l512 -636q60 -72 145.5 -112t178.5 -40h232z" />
    <glyph glyph-name="uE6AD" unicode="&#xe6ad;" 
d="M360 1596l1400 -696l-1400 -704v1400zM480 1400v-1008l1012 508z" />
    <glyph glyph-name="uE6AE" unicode="&#xe6ae;" 
d="M360 112v1568h484v-1568h-484zM480 1560v-1328h244v1328h-244zM1204 1680h484v-1568h-484v1568zM1568 232v1328h-244v-1328h244z" />
    <glyph glyph-name="uE6AF" unicode="&#xe6af;" 
d="M360 1628l880 -728l-880 -736v1464zM480 1372v-948l572 476zM1840 900l-776 644l-80 -92l668 -552l-668 -560l80 -92z" />
    <glyph glyph-name="uE6B0" unicode="&#xe6b0;" 
d="M808 900l880 728v-1464zM1568 424v948l-572 -472zM396 900l668 552l-80 92l-776 -644l776 -652l80 92z" />
    <glyph glyph-name="uE6B1" unicode="&#xe6b1;" 
d="M1536 1376q140 0 257.5 -68.5t186 -186t68.5 -257.5q0 -103 -40.5 -197.5t-109 -163.5t-163.5 -110t-199 -41h-1144q-162 0 -277 115t-115 277q0 108 55.5 200t149 144t199.5 48q63 165 207 264.5t321 99.5q232 0 400 -168q88 44 204 44zM1536 476q162 0 277 113t115 275
t-115 277t-277 115q-98 0 -188 -48l-44 -24l-32 36q-63 75 -152 115.5t-188 40.5q-150 0 -268 -88t-160 -232l-16 -52l-52 8q-16 4 -44 4q-112 0 -192 -79.5t-80 -192.5q0 -111 80.5 -189.5t191.5 -78.5h1144z" />
    <glyph glyph-name="uE6B2" unicode="&#xe6b2;" 
d="M2048 1108q0 103 -40.5 197.5t-109 163.5t-163.5 110t-199 41q-97 0 -204 -44q-170 164 -400 164q-177 0 -321 -99.5t-207 -264.5q-164 9 -284 -106.5t-120 -281.5q0 -162 115 -277t277 -115h444v120h-444q-112 0 -192 79.5t-80 192.5q0 111 80.5 189.5t191.5 78.5
q28 0 44 -4l52 -8l16 52q42 144 160 234t268 90q98 0 187.5 -42t152.5 -118l32 -36l44 24q98 52 188 52q162 0 277 -115t115 -277t-115 -277t-277 -115h-332v-120h332q140 0 257.5 68.5t186 186t68.5 257.5zM1284 852l-200 200v-940h-120v940l-200 -200l-84 88l344 344
l344 -344z" />
    <glyph glyph-name="uE6B3" unicode="&#xe6b3;" 
d="M2048 1108q0 103 -40.5 197.5t-109 163.5t-163.5 110t-199 41q-97 0 -204 -44q-170 164 -400 164q-177 0 -321 -99.5t-207 -264.5q-164 9 -284 -106.5t-120 -281.5q0 -162 115 -277t277 -115h444v120h-444q-112 0 -192 79.5t-80 192.5q0 111 80.5 189.5t191.5 78.5
q28 0 44 -4l52 -8l16 52q42 144 160 234t268 90q98 0 187.5 -42t152.5 -118l32 -36l44 24q98 52 188 52q162 0 277 -115t115 -277t-115 -277t-277 -115h-332v-120h332q140 0 257.5 68.5t186 186t68.5 257.5zM1084 264l200 200l84 -84l-344 -344l-344 344l84 84l200 -200v932
h120v-932z" />
    <glyph glyph-name="uE6B4" unicode="&#xe6b4;" 
d="M1928 1680h-276v-120h156v-1568h-1568v1568h152v120h-272v-1808h1808v1808zM1568 1316v484h-372q-22 53 -68 86.5t-104 33.5t-104 -33.5t-68 -86.5h-372v-484h1088zM1444 1680v-240h-840v240h360v60q0 24 18 42t42 18t42 -18t18 -42v-60h360z" />
    <glyph glyph-name="uE6B5" unicode="&#xe6b5;" 
d="M2048 716v-600h-240v-4q0 -99 -70.5 -169.5t-169.5 -70.5q-102 0 -173 70.5t-71 169.5v4h-600v-4q0 -99 -71 -169.5t-173 -70.5q-99 0 -169.5 70.5t-70.5 169.5v4h-240v600h248l360 480h956l248 -480h236zM1676 716l-184 360h-284v-360h468zM668 1076l-268 -360h688v360
h-420zM480 -8q51 0 87.5 36t36.5 84q0 51 -36.5 85.5t-87.5 34.5q-49 0 -84.5 -35t-35.5 -85q0 -48 36 -84t84 -36zM1568 -8q48 0 84 36t36 84q0 50 -35.5 85t-84.5 35q-51 0 -87.5 -34.5t-36.5 -85.5q0 -48 36.5 -84t87.5 -36zM1928 236v360h-1808v-360h156q33 54 87 85
t117 31q65 0 120 -31t88 -85h672q33 54 88 85t120 31q63 0 117 -31t87 -85h156z" />
    <glyph glyph-name="uE6B6" unicode="&#xe6b6;" 
d="M1688 1680h360v-1808h-2048v1808h360v120h364v-120h600v120h364v-120zM1444 1680v-240h124v240h-124zM480 1680v-240h124v240h-124zM1928 -8v1076h-1808v-1076h1808zM120 1188h1808v372h-240v-244h-364v244h-600v-244h-364v244h-240v-372z" />
    <glyph glyph-name="uE6B7" unicode="&#xe6b7;" 
d="M2000 1780l48 -8v-1672l-72 12q-148 28 -336 28q-271 0 -464 -76v-100h-304v100q-226 84 -476 84q-82 0 -162 -9t-119 -18l-39 -9l-76 -20v1676l44 12q1 0 19.5 4t50 10t72 12t97 10t113.5 4q348 0 628 -140q234 132 616 132q90 0 178 -7.5t132 -14.5t50 -10zM120 244
q128 24 276 24q312 0 568 -116v1420q-242 124 -568 124q-164 0 -276 -24v-1428zM1928 240v1432q-150 20 -288 20q-339 0 -556 -116v-1420q226 104 556 104q128 0 288 -20z" />
    <glyph glyph-name="uE6B8" unicode="&#xe6b8;" 
d="M1844 220l108 -104h-1852l104 100l16 20q16 19 39 54.5t46 80.5t39 107.5t16 125.5v396q0 185 89.5 341.5t242.5 247.5t332 91t332 -91t242.5 -247.5t89.5 -341.5v-396q0 -64 16 -127t39 -107.5t46 -79.5t39 -52zM368 236h1312q-48 68 -80 164t-32 204v396q0 152 -73 281
t-198.5 204t-272.5 75t-272.5 -75t-198.5 -204t-73 -281v-396q0 -187 -112 -368zM1084 1680v120h-120v-120h120zM1084 112q0 -24 -18 -42t-42 -18t-42 18t-18 42h-120q0 -75 52.5 -127.5t127.5 -52.5t127.5 52.5t52.5 127.5h-120z" />
    <glyph glyph-name="uE6B9" unicode="&#xe6b9;" 
d="M1024 1920q209 0 399 -81.5t326.5 -218.5t217.5 -326.5t81 -397.5t-81 -397.5t-217.5 -326.5t-326.5 -218.5t-399 -81.5q-208 0 -397.5 81.5t-326.5 218.5t-218.5 326.5t-81.5 397.5t81.5 397.5t218.5 326.5t326.5 218.5t397.5 81.5zM1564 956h364q-18 267 -184 484
q-162 -218 -180 -484zM1928 836h-364q18 -266 180 -484q166 217 184 484zM1664 1532q-112 115 -261 183.5t-319 80.5v-840h360q18 326 220 576zM964 1796q-167 -12 -315.5 -80.5t-260.5 -183.5q202 -259 220 -576h356v840zM124 956h364q-18 266 -180 484
q-166 -217 -184 -484zM488 836h-364q18 -267 184 -484q162 218 180 484zM388 260q112 -115 260.5 -183.5t315.5 -80.5v840h-356q-18 -326 -220 -576zM1084 -4q170 12 319 80.5t261 183.5q-202 250 -220 576h-360v-840z" />
    <glyph glyph-name="uE6BA" unicode="&#xe6ba;" 
d="M2048 -8h-2048v-120h2048v120zM240 716v-604h-120v724h484v-724h-124v604h-240zM844 1076v-964h-120v1084h480v-1084h-120v964h-240zM1444 1560v-1448h-120v1568h484v-1568h-120v1448h-244z" />
    <glyph glyph-name="uE6BB" unicode="&#xe6bb;" 
d="M2048 -8h-2048v-120h2048v120zM1444 716v-604h-120v724h484v-724h-120v604h-244zM844 1076v-964h-120v1084h480v-1084h-120v964h-240zM240 1560v-1448h-120v1568h484v-1568h-124v1448h-240z" />
    <glyph glyph-name="uE6BC" unicode="&#xe6bc;" 
d="M1756 112h-852q-148 0 -273 73t-198 198t-73 273q0 146 73 270.5t198.5 197t272.5 72.5h352l-320 -316l84 -88l464 464l-464 464l-84 -84l320 -320h-352q-179 0 -332 -88.5t-242.5 -240.5t-89.5 -331q0 -135 53 -258.5t142 -212t212 -141t257 -52.5h852v120z" />
    <glyph glyph-name="uE6BD" unicode="&#xe6bd;" 
d="M1808 1016q0 179 -89.5 332t-242.5 242.5t-332 89.5h-852v-120h852q148 0 273 -73t198 -198t73 -273q0 -147 -73 -271.5t-198 -196.5t-273 -72h-352l320 316l-84 88l-464 -464l464 -468l84 88l-320 316h352q179 0 332 89.5t242.5 242.5t89.5 332z" />
    <glyph glyph-name="uE6BE" unicode="&#xe6be;" 
d="M1808 776h-120v-456l-1240 1240h456v120h-664v-664h120v460l1244 -1244h-460v-120h664v664z" />
    <glyph glyph-name="uE6BF" unicode="&#xe6bf;" 
d="M2048 1680v-484h-120v-1324h-1808v1324h-120v484h2048zM1808 -8v1204h-1568v-1204h1568zM1928 1316v244h-1808v-244h1808zM724 596q-102 0 -173 70.5t-71 169.5t71 169.5t173 70.5h604q99 0 169.5 -70.5t70.5 -169.5t-70.5 -169.5t-169.5 -70.5h-604zM724 956
q-51 0 -85.5 -34.5t-34.5 -85.5t34.5 -85.5t85.5 -34.5h604q49 0 84.5 35t35.5 85t-35.5 85t-84.5 35h-604z" />
    <glyph glyph-name="uE6C0" unicode="&#xe6c0;" 
d="M1844 404l-108 -56l-80 156q-64 -204 -238.5 -336t-393.5 -132t-393.5 132t-238.5 336l-80 -156l-108 56l188 376l380 -188l-56 -108l-224 112q33 -171 164 -291t308 -141v912h-180v120h180v128q-103 21 -171.5 103.5t-68.5 192.5q0 124 87.5 212t212.5 88t212.5 -88
t87.5 -212q0 -110 -68.5 -192.5t-171.5 -103.5v-128h180v-120h-180v-912q177 21 308 141t164 291l-224 -112l-56 108l376 188zM844 1620q0 -75 52.5 -127.5t127.5 -52.5t127.5 52.5t52.5 127.5t-52.5 127.5t-127.5 52.5t-127.5 -52.5t-52.5 -127.5z" />
    <glyph glyph-name="uE6C1" unicode="&#xe6c1;" 
d="M2048 1680h-2048v-120h2048v120zM360 1076v120h1688v-120h-1688zM0 596v120h2048v-120h-2048zM844 112v120h1204v-120h-1204z" />
    <glyph glyph-name="uE6C2" unicode="&#xe6c2;" 
d="M2048 1680h-2048v-120h2048v120zM1688 1196v-120h-1688v120h1688zM0 596v120h2048v-120h-2048zM0 112v120h1204v-120h-1204z" />
    <glyph glyph-name="uE6C3" unicode="&#xe6c3;" 
d="M2048 1680h-2048v-120h2048v120zM0 1076v120h2048v-120h-2048zM0 596v120h2048v-120h-2048zM0 112v120h2048v-120h-2048z" />
    <glyph glyph-name="uE6C4" unicode="&#xe6c4;" 
d="M2048 1680h-2048v-120h2048v120zM180 1196h1688v-120h-1688v120zM0 596v120h2048v-120h-2048zM420 112v120h1208v-120h-1208z" />
    <glyph glyph-name="uE6C5" unicode="&#xe6c5;" 
d="M1020 1740l1004 -1748h-2000zM1020 1496l-788 -1384h1584zM1084 604v472h-120v-472h120zM1144 352q0 49 -35 84.5t-85 35.5t-85 -35.5t-35 -84.5q0 -51 34.5 -87.5t85.5 -36.5t85.5 36.5t34.5 87.5z" />
    <glyph glyph-name="uE6C6" unicode="&#xe6c6;" 
d="M1772 1100q96 -186 96 -384q0 -152 -51.5 -290.5t-144.5 -249.5l152 -208l-96 -72l-144 192q-114 -102 -258 -159t-302 -57t-302 57t-258 159l-144 -192l-96 72l152 208q-93 111 -144.5 249.5t-51.5 290.5q0 198 96 384q-96 102 -96 232q0 135 96.5 231.5t231.5 96.5
q80 0 150 -36.5t118 -103.5q90 30 188 36v124h-120v120h360v-120h-120v-124q98 -6 188 -36q48 67 118 103.5t150 36.5q135 0 231.5 -96.5t96.5 -231.5q0 -130 -96 -232zM1540 1540q-90 0 -152 -68q188 -88 320 -264q40 60 40 124q0 84 -62 146t-146 62zM300 1332
q0 -64 40 -124q130 173 320 268q-64 64 -152 64q-84 0 -146 -62t-62 -146zM1024 -8q197 0 363.5 97t263.5 263.5t97 363.5q0 146 -57.5 280t-154 231t-231 155t-281.5 58t-281.5 -58t-231 -155t-154 -231t-57.5 -280q0 -197 97 -363.5t263.5 -263.5t363.5 -97zM1084 716v360
h-120v-480h604v120h-484z" />
    <glyph glyph-name="uE6C7" unicode="&#xe6c7;" 
d="M1688 1680h240v-1568h-240v-240h-1568v2048h1568v-240zM240 -8h240v1808h-240v-1808zM1568 -8v1808h-964v-1808h964zM1808 232v364h-120v-364h120zM1808 716v360h-120v-360h120zM1688 1196h120v364h-120v-364zM724 1440v-124h600v124h-600zM724 1196v-120h480v120h-480z
" />
    <glyph glyph-name="uE6C8" unicode="&#xe6c8;" 
d="M1404 1920l644 -640v-1408h-1504v120h1384v1204h-604v604h-840v-120h56q75 0 127.5 -52.5t52.5 -127.5v-1032l-296 -600l-304 596v1036q0 75 52.5 127.5t127.5 52.5h64v240h1040zM472 232l128 264v704h-120v-728h-120v728h-120v-704l132 -264h100zM600 1500q0 24 -18 42
t-42 18h-240q-24 0 -42 -18t-18 -42v-180h360v180zM1444 1712v-396h396z" />
    <glyph glyph-name="uE6C9" unicode="&#xe6c9;" 
d="M0 1800h2048v-1808h-2048v1808zM1928 1680h-1808v-364h1808v364zM120 112h1808v1084h-1808v-1084zM844 1440v120h-120v-120h120zM604 1440v120h-124v-120h124zM360 1440v120h-120v-120h120z" />
    <glyph glyph-name="uE6CA" unicode="&#xe6ca;" 
d="M240 1920v-120h120v120h-120zM480 1800v120h124v-120h-124zM724 1800v120h120v-120h-120zM964 1800v120h120v-120h-120zM1204 1800v120h120v-120h-120zM1444 1800v120h124v-120h-124zM1688 1800v120h120v-120h-120zM240 836v120h120v-120h-120zM480 836v120h124v-120
h-124zM724 836v120h120v-120h-120zM1204 836v120h120v-120h-120zM1444 836v120h124v-120h-124zM1688 836v120h120v-120h-120zM240 -128v120h120v-120h-120zM480 -128v120h124v-120h-124zM724 -128v120h120v-120h-120zM964 -128v120h120v-120h-120zM1204 -128v120h120v-120
h-120zM1444 -128v120h124v-120h-124zM1688 -128v120h120v-120h-120zM1928 1920h120v-120h-120v120zM1928 1560v120h120v-120h-120zM1928 1316v124h120v-124h-120zM1928 1076v120h120v-120h-120zM1928 836v120h120v-120h-120zM1928 596v120h120v-120h-120zM1928 352v124h120
v-124h-120zM1928 112v120h120v-120h-120zM964 1560v120h120v-120h-120zM964 1316v124h120v-124h-120zM964 1076v120h120v-120h-120zM964 836v120h120v-120h-120zM964 596v120h120v-120h-120zM964 352v124h120v-124h-120zM964 112v120h120v-120h-120zM1928 -128v120h120v-120
h-120zM0 1800v120h120v-120h-120zM0 1560v120h120v-120h-120zM0 1316v124h120v-124h-120zM0 1076v120h120v-120h-120zM0 836v120h120v-120h-120zM0 596v120h120v-120h-120zM0 352v124h120v-124h-120zM0 112v120h120v-120h-120zM0 -128v120h120v-120h-120z" />
    <glyph glyph-name="uE6CB" unicode="&#xe6cb;" 
d="M240 1920v-120h120v120h-120zM604 1920v-120h-124v120h124zM844 1920v-120h-120v120h120zM1084 1920v-120h-120v120h120zM1324 1920v-120h-120v120h120zM1568 1920v-120h-124v120h124zM1688 1800v120h120v-120h-120zM240 -128v120h120v-120h-120zM480 -128v120h124v-120
h-124zM724 -128v120h120v-120h-120zM964 -128v120h120v-120h-120zM1204 -128v120h120v-120h-120zM1444 -128v120h124v-120h-124zM1688 -128v120h120v-120h-120zM1928 1920h120v-120h-120v120zM1928 1560v120h120v-120h-120zM1928 1316v124h120v-124h-120zM1928 1076v120h120
v-120h-120zM1928 836v120h120v-120h-120zM1928 596v120h120v-120h-120zM1928 352v124h120v-124h-120zM1928 112v120h120v-120h-120zM1928 -128v120h120v-120h-120zM0 1800v120h120v-120h-120zM0 1560v120h120v-120h-120zM0 1316v124h120v-124h-120zM0 1076v120h120v-120
h-120zM0 836v120h120v-120h-120zM0 596v120h120v-120h-120zM0 352v124h120v-124h-120zM0 112v120h120v-120h-120zM0 -128v120h120v-120h-120zM1624 964l-8 40l-172 52q-2 4 -4 12t-4 12l84 160l-24 32q-42 54 -96 96l-32 24l-160 -84q-4 2 -12 4t-12 4l-52 172l-40 8
q-68 6 -136 0l-40 -8l-52 -172q-4 -2 -12 -4t-12 -4l-160 84l-32 -24q-46 -36 -96 -100l-24 -28l84 -160q-2 -4 -4 -12t-4 -12l-172 -52l-8 -40q0 -10 -2 -33t-2 -35t2 -35t2 -33l8 -40l172 -52q2 -4 4 -12t4 -12l-84 -160l24 -28q39 -56 96 -100l32 -24l160 84q4 -2 12 -4
t12 -4l52 -172l40 -8q10 0 33 -2t35 -2t35 2t33 2l40 8l52 172q4 2 12 4t12 4l160 -84l28 24q49 34 100 100l24 28l-84 160q2 4 4 12t4 12l172 52l8 40q0 10 2 33t2 35t-2 35t-2 33zM1504 896v-16l-156 -48l-8 -32q-16 -40 -28 -60l-12 -28l76 -144l-24 -24l-144 76l-28 -16
l-60 -24l-32 -8l-48 -156q-16 -5 -32 0l-48 156l-32 8q-40 16 -60 28l-28 12l-144 -76l-24 24l76 144l-12 28q-12 20 -28 60l-8 32l-156 48v16v16l156 48l8 32q16 40 28 60l12 28l-76 144l24 24l144 -76l28 12q20 12 60 28l32 8l48 156q16 5 32 0l48 -156l32 -8
q40 -16 60 -28l28 -12l144 76l24 -24l-76 -144l12 -28q12 -20 28 -60l8 -32l156 -48v-16z" />
    <glyph glyph-name="uE6CC" unicode="&#xe6cc;" 
d="M240 1920v-120h120v120h-120zM604 1920v-120h-124v120h124zM844 1920v-120h-120v120h120zM1084 1920v-120h-120v120h120zM1324 1920v-120h-120v120h120zM1568 1920v-120h-124v120h124zM1688 1800v120h120v-120h-120zM240 -128v120h120v-120h-120zM480 -128v120h124v-120
h-124zM724 -128v120h120v-120h-120zM964 -128v120h120v-120h-120zM1204 -128v120h120v-120h-120zM1444 -128v120h124v-120h-124zM1688 -128v120h120v-120h-120zM1928 1920h120v-120h-120v120zM1928 1560v120h120v-120h-120zM1928 1316v124h120v-124h-120zM1928 1076v120h120
v-120h-120zM1928 836v120h120v-120h-120zM1928 596v120h120v-120h-120zM1928 352v124h120v-124h-120zM1928 112v120h120v-120h-120zM1928 -128v120h120v-120h-120zM0 1800v120h120v-120h-120zM0 1560v120h120v-120h-120zM0 1316v124h120v-124h-120zM0 1076v120h120v-120
h-120zM0 836v120h120v-120h-120zM0 596v120h120v-120h-120zM0 352v124h120v-124h-120zM0 112v120h120v-120h-120zM0 -128v120h120v-120h-120zM1024 712l500 496l84 -84l-584 -584l-584 584l84 84z" />
    <glyph glyph-name="uE6CD" unicode="&#xe6cd;" 
d="M188 1680h1860v-1488h-236v-200h-1624q-78 0 -133 53t-55 131v1316q0 78 55 133t133 55zM188 112h1504v360h-344q-78 0 -133 52.5t-55 127.5v120q0 75 55 129.5t133 54.5h344v364h-1504h-4q-16 0 -56 8q-4 0 -8 4v-1156q0 -27 20.5 -45.5t47.5 -18.5zM1348 592h580v244
h-580q-30 0 -49 -18.5t-19 -45.5v-120q0 -25 19.5 -42.5t48.5 -17.5zM1928 312v160h-116v-160h116zM1812 956h116v604h-1740q-27 0 -45.5 -20.5t-18.5 -47.5q0 -25 19 -38.5t45 -13.5h1624v-484z" />
    <glyph glyph-name="uE6CE" unicode="&#xe6ce;" 
d="M0 1800h2048v-1808h-2048v1808zM1928 1440v240h-316l284 -240h32zM1052 1076h352l284 240h-352zM820 1440h352l-284 240h-352zM1152 1316h-352l-284 -240h352zM1356 1440h352l-284 240h-352zM120 1680v-240h512l-284 240h-228zM120 1316v-240h208l284 240h-492zM1928 112
v844h-1808v-844h1808zM1928 1076v240h-52l-284 -240h336z" />
    <glyph glyph-name="uE6CF" unicode="&#xe6cf;" 
d="M1564 1108l484 336v-1216l-484 336v-272q0 -73 -53 -126.5t-127 -53.5h-960q-74 0 -127 53.5t-53 126.5v664h-60q-78 0 -131 52.5t-53 127.5v240q0 76 53.5 130t130.5 54h176v60q0 75 54.5 127.5t129.5 52.5h664v-120h-664q-27 0 -45.5 -18t-18.5 -42v-60h904
q75 0 127.5 -54.5t52.5 -129.5v-268zM1928 460v752l-484 -336v500q0 27 -18 45.5t-42 18.5h-1200q-27 0 -45.5 -18.5t-18.5 -45.5v-240q0 -24 18.5 -42t45.5 -18h180v-784q0 -24 18 -42t42 -18h960q24 0 42 18t18 42v504z" />
    <glyph glyph-name="uE6D0" unicode="&#xe6d0;" 
d="M1800 1196h248v-360h-360v288q-161 82 -346 69t-334 -117q12 -24 12 -60q0 -75 -52.5 -127.5t-127.5 -52.5q-28 0 -40 4q-76 -134 -76 -304q0 -150 80 -304h280v-360h-360v256q-47 74 -83.5 181t-36.5 227q0 142 48 268l-312 -308q20 -40 20 -80q0 -75 -52.5 -129.5
t-127.5 -54.5t-127.5 54.5t-52.5 129.5q0 73 53 126.5t127 53.5q28 0 76 -16l408 408q-4 8 -4 28q0 75 52.5 127.5t127.5 52.5h32l468 468q-16 48 -16 76q0 74 53.5 127t126.5 53q75 0 129.5 -52.5t54.5 -127.5t-54.5 -127.5t-129.5 -52.5q-40 0 -80 20l-308 -312
q126 48 268 48q230 0 416 -120zM1504 1800q-24 0 -42 -18t-18 -42t18 -42t42 -18q27 0 45.5 18t18.5 42t-18.5 42t-45.5 18zM180 352q24 0 42 18.5t18 45.5q0 24 -18 42t-42 18t-42 -18t-18 -42q0 -27 18 -45.5t42 -18.5zM844 112v-120h120v120h-120zM840 956q24 0 42 18
t18 42t-18 42t-42 18t-42 -18t-18 -42t18 -42t42 -18zM1928 956v120h-120v-120h120z" />
    <glyph glyph-name="uE6D1" unicode="&#xe6d1;" 
d="M316 1100q40 0 80 -8q12 18 12 40q0 27 -21.5 45.5t-54.5 18.5q-32 0 -132 -20q-10 -1 -59 -8.5t-65 -7.5q-56 0 -60 28q-21 -31 -16 -56q7 -52 96 -52h28q4 0 14 2t14 2h8v-8q-4 -12 -37.5 -93.5t-60 -152t-26.5 -82.5q0 -9 2 -16t8 -12t9.5 -8t14 -5.5t13 -3t15.5 -2
t14 -1.5q1 2 25 64t45.5 116t49 119t44.5 97h4q12 4 36 4zM784 764q25 6 67 26.5t65 37.5q-81 -124 -188 -124q-19 0 -35.5 4t-33.5 22.5t-19 49.5q-63 -88 -108 -84q-56 0 -56 64q0 27 16 76t32 84l16 36q-41 0 -92.5 -82t-79.5 -182q-27 0 -49.5 22.5t-22.5 49.5
q0 6 1.5 13.5t4.5 18.5t6.5 20.5t9.5 24t10.5 25t12.5 28t12.5 27.5l13.5 30t13 29q3 7 26 54t39 91t23 91q36 12 44 12q44 0 44 -44q0 -11 -41 -104t-43 -104q80 52 124 52q24 0 38 -11.5t14 -32.5q0 -24 -40 -88q-29 -46 -44 -92q-6 -24 0 -24q4 -1 14.5 -1.5t30 8.5
t35.5 25q16 77 80.5 154.5t127.5 77.5q35 0 56 -20.5t24 -51.5q7 -56 -34.5 -105.5t-87 -59t-66.5 12.5q-2 4 6 6.5t22.5 6.5t30 12t29.5 28.5t20 50.5q3 13 -4 18.5t-16 5.5q-27 0 -65.5 -45.5t-38.5 -90.5q0 -57 56 -48zM1292 804q-5 -16 -0.5 -20t16.5 -4q28 0 44 12
q-10 -39 -36.5 -67.5t-63.5 -28.5q-52 0 -52 52t52 156l8 12h-12q-27 0 -77.5 -75.5t-62.5 -132.5h-16q-20 0 -34 10t-14 30q0 32 32 96q12 20 28 60l4 8h-8q-33 0 -74 -67t-66 -141h-4q-24 0 -40 14t-16 38q0 12 40 100q60 145 64 180q12 4 28 4q44 0 44 -36l-8 -60
q32 38 65.5 61t54.5 23q36 0 36 -60v-16l8 12q61 68 104 68q32 0 32 -32q0 -45 -52 -132q-24 -48 -24 -64zM1508 768q-12 -40 -29.5 -56t-50.5 -16q-29 0 -48.5 23.5t-19.5 52.5q0 28 56 148q32 72 44 104h4h4q20 0 40.5 -14t23.5 -34q0 -9 -6 -20.5t-18 -30t-20 -33.5
q-40 -73 -40 -108q0 -17 21 -24.5t39 8.5zM1524 1064q-48 0 -48 28v9.5v10t1 9t3 10t6 9.5t10 12q92 -5 92 -28q0 -22 -28 -56q-12 -4 -36 -4zM1976 1052q27 0 48 -10t24 -30q0 -16 -16 -48q-2 -4 -6 -14t-6 -14q-2 -7 -14 -38t-14 -42q-18 -55 -34 -93.5t-40.5 -79
t-58.5 -64t-75 -27.5l-4 -4q-54 0 -76 28q-20 18 -28 38t-6 31l2 11q3 -4 8.5 -11t28.5 -17t51 -8q35 0 66.5 37t53.5 99l-4 4q-23 -31 -69 -55.5t-67 -0.5q-3 2 -5.5 5t-4 7.5t-2.5 7t-2 10t-2 10.5q0 33 32 140q13 33 20 60q0 4 -8 12h-4q-20 0 -32 -8q-24 -12 -32 -28
q-160 -356 -168 -416q-22 4 -48.5 26t-23.5 46q0 30 92 224l52 124q-2 3 -9 10t-10 13t-1 13q0 22 20 32h4l36 12v4q16 36 31 63.5t39 63t53.5 54t60.5 15.5q36 0 58.5 -17t25.5 -47q1 -16 0.5 -18t-8.5 -18q-6 28 -32.5 30.5t-47.5 -14.5q-15 -7 -40 -42.5t-36 -73.5h48
q32 0 48 -4q2 0 6 -2t6 -2q4 -2 6 -4t3.5 -4.5t2.5 -3.5q0 -8 4 -12q0 -13 -28 -88q-27 -63 -24 -72q15 -35 73 43q54 73 75 136q3 10 4 17v4h4z" />
    <glyph glyph-name="uE6D2" unicode="&#xe6d2;" 
d="M1132 1764q116 0 221 -25.5t189.5 -70.5t158 -107.5t128 -136.5t97 -157t69 -170t40 -174.5t12.5 -171t-15 -159.5q-10 -53 -42.5 -99.5t-88 -82.5t-119.5 -65.5t-153.5 -53t-170 -40.5t-189.5 -32.5t-192.5 -25.5t-196.5 -21q-194 -20 -387 -56t-289 -62l-96 -26
q5 4 13.5 10.5t33 28.5t46.5 44t48.5 53.5t45 61t29.5 63.5t8 63.5t-24.5 58t-63.5 49.5q-35 19 -82 74.5t-88.5 142.5t-65 189t1.5 217.5t95.5 223.5t232 211.5t398.5 177.5q204 68 396 68zM1916 612q30 176 -20.5 389t-187.5 379q-216 264 -576 264q-168 0 -360 -60
q-91 -29 -170.5 -62.5t-165.5 -83.5t-148.5 -107t-108 -134.5t-55.5 -164.5q-10 -81 9 -166t52 -145.5t64.5 -101.5t50.5 -51q44 -23 75 -52t46.5 -59t22 -52.5t8.5 -44.5q6 -66 -24 -132q218 42 436 64q401 44 592 83q433 90 460 237zM480 1136q0 -48 36.5 -84t87.5 -36
q48 0 84 36t36 84q0 50 -35.5 85t-84.5 35q-51 0 -87.5 -34.5t-36.5 -85.5zM1084 1196q0 -48 36 -84t84 -36q50 0 85 35.5t35 84.5q0 51 -34.5 85.5t-85.5 34.5q-49 0 -84.5 -35t-35.5 -85zM1604 896q-16 -10 -44.5 -25.5t-116.5 -56.5t-174 -73t-204.5 -59t-222 -30.5
t-211.5 27.5t-187 101q6 -8 18 -21t51.5 -49t83 -65t111.5 -59.5t137.5 -43.5t160.5 -4.5t182.5 44.5t200 115.5t215.5 198.5z" />
    <glyph glyph-name="uE6D3" unicode="&#xe6d3;" 
d="M736 1696q376 109 641 35t421 -270.5t214 -428.5t20 -440q-10 -53 -42.5 -99.5t-88 -82.5t-119.5 -65.5t-153.5 -53t-170 -40.5t-189.5 -32.5t-192.5 -25.5t-196.5 -21q-194 -20 -387 -56t-289 -62l-96 -26q5 4 13.5 10.5t33 28.5t46.5 44t48.5 53.5t45 61t29.5 63.5
t8 63.5t-24.5 58t-63.5 49.5q-35 19 -82 74.5t-88.5 142.5t-65 189t1.5 217.5t95.5 223.5t232 211.5t398.5 177.5zM1204 1316q-49 0 -84.5 -35t-35.5 -85q0 -48 36 -84t84 -36q50 0 85 35.5t35 84.5q0 51 -34.5 85.5t-85.5 34.5zM604 1256q-51 0 -87.5 -34.5t-36.5 -85.5
q0 -48 36.5 -84t87.5 -36q48 0 84 36t36 84q0 50 -35.5 85t-84.5 35zM444 780q6 -8 18 -21t51.5 -49t83 -65t111.5 -59.5t137.5 -43.5t160.5 -4.5t182.5 44.5t200 115.5t215.5 198.5q-16 -10 -44.5 -25.5t-116.5 -56.5t-174 -73t-204.5 -59t-222 -30.5t-211.5 27.5t-187 101
z" />
    <glyph glyph-name="uE6D4" unicode="&#xe6d4;" 
d="M1612 1560h436v-1568h-2048v1568h436q84 166 242 263t346 97t346 -97t242 -263zM1024 1800q-137 0 -256.5 -64t-191.5 -176h896q-72 112 -191.5 176t-256.5 64zM1928 112v1328h-1808v-1328h1808zM964 716v-240h120v240h240v120h-240v240h-120v-240h-240v-120h240z" />
    <glyph glyph-name="uE6D5" unicode="&#xe6d5;" 
d="M2048 484v-492h-120v-120h-1808v120h-120v492q0 95 67 161.5t161 66.5h528l-152 564v404q0 99 70.5 169.5t169.5 70.5h360q97 0 168.5 -71t71.5 -169l-4 -424l-152 -544h532q94 0 161 -66.5t67 -161.5zM1928 112v372q0 45 -31.5 76.5t-76.5 31.5h-688l192 688v400
q0 48 -36 84t-84 36h-360q-48 0 -84 -36t-36 -84v-396l192 -692h-688q-45 0 -76.5 -31.5t-31.5 -76.5v-372h1808z" />
    <glyph glyph-name="uE6D6" unicode="&#xe6d6;" 
d="M644 1216l-84 84l-404 -404l404 -404l84 84l-316 320zM1488 1300l404 -404l-404 -404l-84 84l316 320l-316 320zM964 -128v2048h120v-2048h-120z" />
    <glyph glyph-name="uE6D7" unicode="&#xe6d7;" 
d="M1996 1456q52 -52 52 -128q0 -70 -52 -128l-924 -924l-100 96l-264 -264h-652l1516 1520q51 51 128 51t128 -51zM816 700l256 -252l96 100l-252 252zM660 228l228 232l-156 156l-388 -388h316zM1908 1288q18 18 18 42t-18 42l-168 168q-20 20 -40 20q-24 0 -44 -20
l-656 -656l256 -252z" />
    <glyph glyph-name="uE6D8" unicode="&#xe6d8;" 
d="M4 1800v-1808h360v120h-240v1568h240v120h-360zM1688 1800h364v-1808h-364v120h244v1568h-244v120zM1072 960q130 -50 190.5 -116t57.5 -168q0 -122 -87.5 -203t-252.5 -81q-68 0 -138.5 18.5t-109.5 45.5l32 104q112 -64 224 -64q96 0 150 47t54 121q0 69 -42 112.5
t-142 79.5q-125 48 -190.5 113.5t-65.5 162.5q0 115 88.5 191.5t227.5 76.5q128 0 216 -48l-36 -104q-96 48 -184 48q-91 0 -137.5 -45t-46.5 -103q0 -66 44 -106.5t148 -81.5z" />
    <glyph glyph-name="uE6D9" unicode="&#xe6d9;" 
d="M1832 896l-404 404l-84 -84l316 -320l-316 -320l84 -84zM844 -128v2048h120v-2048h-120z" />
    <glyph glyph-name="uE6DA" unicode="&#xe6da;" 
d="M704 1216l-84 84l-404 -404l404 -404l84 84l-316 320zM1084 1920h120v-2048h-120v2048z" />
    <glyph glyph-name="uE6DB" unicode="&#xe6db;" 
d="M0 1884l2012 -2012h-2012v2012zM120 1592v-1600h1600l-304 308l-80 -80l-84 84l76 80l-84 84l-80 -76l-84 84l80 80l-88 84l-76 -80l-88 88l80 76l-84 88l-80 -80l-84 84l76 80l-84 84l-80 -76l-84 84l80 80l-88 84l-76 -80l-88 88l80 76zM240 112v928l928 -928h-928z
M360 752v-520h520z" />
    <glyph glyph-name="uE6DC" unicode="&#xe6dc;" 
d="M240 1920h1568v-2036l-240 300l-180 -228l-180 228l-180 -228l-180 228l-180 -228l-184 228l-244 -300v2036zM1688 228v1572h-1328v-1580l128 156l180 -228l180 228l180 -228l180 228l180 -228l180 228zM1324 1440v120h-724v-120h724zM1084 956v120h-484v-120h484z
M1444 1196v120h-844v-120h844zM604 716v-120h840v120h-840z" />
    <glyph glyph-name="uE6DD" unicode="&#xe6dd;" 
d="M964 536v-664h120v664h-120zM1688 860l-132 60l-136 760l52 92l84 148h-1064l84 -148l52 -92l-136 -760l-132 -60v-264h1328v264zM1568 780v-64h-1088v64l120 56l144 824l8 40l-56 100h656l-36 -64l-20 -36l140 -804l12 -60z" />
    <glyph glyph-name="uE6DE" unicode="&#xe6de;" 
d="M652 608l-636 -632l88 -88l632 636zM2048 1172l-748 748l-48 -160l-32 -104l-632 -444l-132 52l-188 -188l936 -936l188 188l-52 132l444 632zM1820 1228l-68 -20l-44 -12l-464 -664l-40 -52l24 -60l24 -64l-48 -44l-764 764l44 48l124 -48l716 504l12 44l20 68z" />
    <glyph glyph-name="uE6DF" unicode="&#xe6df;" 
d="M1144 1920q75 0 127.5 -52.5t52.5 -127.5v-1284l-296 -596l-304 596v1284q0 75 52.5 127.5t127.5 52.5h240zM904 1800q-24 0 -42 -18t-18 -42v-124h360v124q0 24 -18 42t-42 18h-240zM972 232h104l112 220h-328zM844 572h360v680h-360v-680zM844 1372h360v124h-360v-124z
" />
    <glyph glyph-name="uE6E0" unicode="&#xe6e0;" 
d="M1024 1860q196 0 374.5 -76.5t307.5 -205.5t205.5 -307.5t76.5 -374.5q0 -243 -116 -458t-320 -350l-40 -24l-448 448q-51 51 -128 51t-128 -51q-56 -56 -56 -128q0 -78 56 -128l328 -328l-156 8q-254 10 -465.5 141t-333 348t-121.5 471q0 196 76.5 374.5t205.5 307.5
t307.5 205.5t374.5 76.5zM1524 220q162 117 253 296t91 380q0 171 -67 327t-180.5 269.5t-269.5 180.5t-327 67t-327 -67t-269.5 -180.5t-180.5 -269.5t-67 -327q0 -291 178 -517t454 -299l-92 92q-88 88 -88 212t88 212q87 84 214 84t214 -84zM1384 1136q102 0 173 -70.5
t71 -169.5t-71 -169.5t-173 -70.5q-99 0 -169.5 70.5t-70.5 169.5t70.5 169.5t169.5 70.5zM1384 776q51 0 85.5 34.5t34.5 85.5t-34.5 85.5t-85.5 34.5q-49 0 -84.5 -35t-35.5 -85t35.5 -85t84.5 -35zM1024 1196q74 0 127 53.5t53 126.5q0 75 -52.5 129.5t-127.5 54.5
t-127.5 -54.5t-52.5 -129.5q0 -73 53 -126.5t127 -53.5zM692 1212q0 49 -35 84.5t-85 35.5t-85 -35.5t-35 -84.5q0 -51 34.5 -87.5t85.5 -36.5t85.5 36.5t34.5 87.5z" />
    </font>
</defs>
</svg>
